<?xml version="1.0" encoding="utf-8"?>
<!-- Generator: Adobe Illustrator 27.5.0, SVG Export Plug-In . SVG Version: 6.00 Build 0)  -->
<svg version="1.1" xmlns="http://www.w3.org/2000/svg" xmlns:xlink="http://www.w3.org/1999/xlink" x="0px" y="0px"
	 viewBox="0 0 1040 500" style="enable-background:new 0 0 1040 500;" xml:space="preserve">
<g id="BACKGROUND">
	<rect y="-0.003" style="fill:#FFFFFF;" width="1040" height="500.005"/>
</g>
<g id="OBJECTS">
	
		<line style="fill:none;stroke:#28393B;stroke-width:2.6803;stroke-miterlimit:10;" x1="32.465" y1="235.982" x2="100.423" y2="235.982"/>
	<polyline style="fill:none;stroke:#28393B;stroke-width:2.6803;stroke-miterlimit:10;" points="463.942,308.581 463.942,468.036 
		612.783,468.036 786.117,468.036 	"/>
	<rect y="350.691" style="fill:#E6A033;" width="280.362" height="42.194"/>
	<g>
		<g>
			<g>
				<g>
					<path style="fill-rule:evenodd;clip-rule:evenodd;fill:#28393B;" d="M57.744,459.269c0,6.981-5.659,12.64-12.639,12.64
						c-6.981,0-12.64-5.659-12.64-12.64c0-6.98,5.659-12.639,12.64-12.639C52.085,446.63,57.744,452.289,57.744,459.269z"/>
				</g>
				<g>
					<g>
						<path style="fill:#FFFFFF;" d="M48.437,467.006h-6.665c-2.429,0-4.404-1.975-4.404-4.404v-6.665
							c0-2.429,1.975-4.404,4.404-4.404h6.665c2.429,0,4.404,1.975,4.404,4.404v6.665C52.841,465.03,50.866,467.006,48.437,467.006z
							 M41.772,452.859c-1.697,0-3.078,1.38-3.078,3.078v6.665c0,1.697,1.381,3.077,3.078,3.077h6.665
							c1.697,0,3.078-1.38,3.078-3.077v-6.665c0-1.697-1.381-3.078-3.078-3.078H41.772z"/>
					</g>
					<g>
						<path style="fill:#FFFFFF;" d="M45.105,463.231c-2.185,0-3.962-1.777-3.962-3.962c0-2.184,1.777-3.961,3.962-3.961
							c2.185,0,3.962,1.777,3.962,3.961C49.066,461.454,47.289,463.231,45.105,463.231z M45.105,456.634
							c-1.453,0-2.636,1.182-2.636,2.635c0,1.453,1.183,2.636,2.636,2.636c1.453,0,2.636-1.182,2.636-2.636
							C47.74,457.816,46.558,456.634,45.105,456.634z"/>
					</g>
				</g>
			</g>
		</g>
		<g>
			<g>
				<g>
					<path style="fill-rule:evenodd;clip-rule:evenodd;fill:#28393B;" d="M219.119,459.27c0,6.98-5.659,12.639-12.639,12.639
						c-6.98,0-12.639-5.659-12.639-12.639c0-6.981,5.659-12.64,12.639-12.64C213.46,446.63,219.119,452.289,219.119,459.27z"/>
				</g>
				<path style="fill-rule:evenodd;clip-rule:evenodd;fill:#FFFFFF;" d="M207.498,456.534v-1.099c0-0.526,0.355-0.653,0.607-0.653
					c0.24,0,1.533,0,1.533,0v-2.346h-2.117c-2.346,0-2.873,1.74-2.873,2.862v1.236h-1.362v1.648v1.088h1.374
					c0,3.102,0,6.832,0,6.832h2.735c0,0,0-3.777,0-6.832h2.026l0.091-1.076l0.16-1.66H207.498z"/>
			</g>
		</g>
	</g>
	<rect y="-0.003" style="fill:#28393B;" width="100.423" height="100.423"/>
	<path style="fill:#E6A033;" d="M342.374,16.781c-4.469,28.026-28.724,49.44-58.01,49.44c-29.27,0-53.538-21.414-58.01-49.44
		h-27.325c4.653,43.029,41.084,76.516,85.335,76.516c44.267,0,80.684-33.487,85.336-76.516H342.374z"/>
	<path style="fill:#28393B;" d="M410.404,451.53c0,17.985-5.521,34.669-14.983,48.473h-37.644
		c15.438-10.587,25.556-28.357,25.556-48.473c0-29.282-21.415-53.538-49.438-58.001v-27.325
		C376.927,370.854,410.404,407.265,410.404,451.53z"/>
	<rect x="796.211" y="434.874" style="fill:#28393B;" width="243.789" height="65.128"/>
	<rect x="787.014" y="-0.003" style="fill:#E6A033;" width="252.986" height="65.128"/>
	<g>
		<path style="fill:#28393B;" d="M844.114,35.156c-1.433,0-2.594-1.162-2.594-2.594c0-1.433,1.161-2.594,2.594-2.594
			c1.432,0,2.594,1.161,2.594,2.594C846.708,33.994,845.546,35.156,844.114,35.156z"/>
		<path style="fill:#28393B;" d="M827.252,35.156c-1.433,0-2.594-1.162-2.594-2.594c0-1.433,1.161-2.594,2.594-2.594
			c1.433,0,2.594,1.161,2.594,2.594C829.846,33.994,828.685,35.156,827.252,35.156z"/>
		<path style="fill:#28393B;" d="M810.391,35.156c-1.432,0-2.594-1.162-2.594-2.594c0-1.433,1.161-2.594,2.594-2.594
			c1.433,0,2.594,1.161,2.594,2.594C812.985,33.994,811.824,35.156,810.391,35.156z"/>
		<path style="fill:#28393B;" d="M793.53,35.156c-1.433,0-2.594-1.162-2.594-2.594c0-1.433,1.161-2.594,2.594-2.594
			c1.433,0,2.594,1.161,2.594,2.594C796.124,33.994,794.963,35.156,793.53,35.156z"/>
		<path style="fill:#28393B;" d="M776.669,35.156c-1.432,0-2.594-1.162-2.594-2.594c0-1.433,1.161-2.594,2.594-2.594
			c1.433,0,2.594,1.161,2.594,2.594C779.263,33.994,778.102,35.156,776.669,35.156z"/>
		<path style="fill:#28393B;" d="M759.808,35.156c-1.433,0-2.594-1.162-2.594-2.594c0-1.433,1.161-2.594,2.594-2.594
			c1.433,0,2.594,1.161,2.594,2.594C762.402,33.994,761.241,35.156,759.808,35.156z"/>
		<path style="fill:#28393B;" d="M742.947,35.156c-1.433,0-2.594-1.162-2.594-2.594c0-1.433,1.161-2.594,2.594-2.594
			c1.433,0,2.594,1.161,2.594,2.594C745.541,33.994,744.38,35.156,742.947,35.156z"/>
		<path style="fill:#28393B;" d="M726.086,35.156c-1.433,0-2.594-1.162-2.594-2.594c0-1.433,1.161-2.594,2.594-2.594
			c1.433,0,2.594,1.161,2.594,2.594C728.68,33.994,727.519,35.156,726.086,35.156z"/>
		<path style="fill:#28393B;" d="M709.225,35.156c-1.433,0-2.594-1.162-2.594-2.594c0-1.433,1.161-2.594,2.594-2.594
			c1.433,0,2.594,1.161,2.594,2.594C711.819,33.994,710.657,35.156,709.225,35.156z"/>
	</g>
	<rect x="467.963" y="36.496" style="fill:#28393B;" width="167.388" height="182.442"/>
</g>
<g id="PHOTOS">
	<g>
		<defs>
			<rect id="SVGID_1_" x="495.108" y="65.126" width="544.892" height="369.748"/>
		</defs>
		<clipPath id="SVGID_00000021114845109649138910000013119712462982749061_">
			<use xlink:href="#SVGID_1_"  style="overflow:visible;"/>
		</clipPath>
		<g style="clip-path:url(#SVGID_00000021114845109649138910000013119712462982749061_);">
			<g>
				
					<rect x="1020.539" y="65.126" transform="matrix(-1.836970e-16 1 -1 -1.836970e-16 1105.1257 -955.4136)" style="fill:#FFFFFF;" width="19.461" height="19.461"/>
				
					<rect x="1020.539" y="84.586" transform="matrix(-1.836970e-16 1 -1 -1.836970e-16 1124.5862 -935.9532)" style="fill:#C7C7C7;" width="19.46" height="19.461"/>
				
					<rect x="1020.539" y="104.047" transform="matrix(-1.836970e-16 1 -1 -1.836970e-16 1144.0466 -916.4927)" style="fill:#FFFFFF;" width="19.461" height="19.461"/>
				
					<rect x="1020.54" y="123.507" transform="matrix(-1.836970e-16 1 -1 -1.836970e-16 1163.5071 -897.0323)" style="fill:#C7C7C7;" width="19.46" height="19.461"/>
				
					<rect x="1020.539" y="142.967" transform="matrix(-1.836970e-16 1 -1 -1.836970e-16 1182.9675 -877.5719)" style="fill:#FFFFFF;" width="19.461" height="19.461"/>
				
					<rect x="1020.539" y="162.428" transform="matrix(-1.836970e-16 1 -1 -1.836970e-16 1202.428 -858.1114)" style="fill:#C7C7C7;" width="19.46" height="19.461"/>
				
					<rect x="1020.539" y="181.888" transform="matrix(-1.836970e-16 1 -1 -1.836970e-16 1221.8884 -838.651)" style="fill:#FFFFFF;" width="19.46" height="19.461"/>
				
					<rect x="1020.539" y="201.349" transform="matrix(-1.836970e-16 1 -1 -1.836970e-16 1241.3489 -819.1906)" style="fill:#C7C7C7;" width="19.461" height="19.461"/>
				
					<rect x="1020.54" y="220.809" transform="matrix(-1.836970e-16 1 -1 -1.836970e-16 1260.8092 -799.7301)" style="fill:#FFFFFF;" width="19.46" height="19.461"/>
				
					<rect x="1020.539" y="240.27" transform="matrix(-1.836970e-16 1 -1 -1.836970e-16 1280.2697 -780.2697)" style="fill:#C7C7C7;" width="19.461" height="19.461"/>
				
					<rect x="1020.54" y="259.73" transform="matrix(-1.836970e-16 1 -1 -1.836970e-16 1299.7301 -760.8092)" style="fill:#FFFFFF;" width="19.46" height="19.461"/>
				
					<rect x="1020.539" y="279.191" transform="matrix(-1.836970e-16 1 -1 -1.836970e-16 1319.1906 -741.3488)" style="fill:#C7C7C7;" width="19.461" height="19.461"/>
				
					<rect x="1020.539" y="298.651" transform="matrix(-1.836970e-16 1 -1 -1.836970e-16 1338.651 -721.8884)" style="fill:#FFFFFF;" width="19.46" height="19.461"/>
				
					<rect x="1020.539" y="318.112" transform="matrix(-1.836970e-16 1 -1 -1.836970e-16 1358.1115 -702.4279)" style="fill:#C7C7C7;" width="19.461" height="19.461"/>
				
					<rect x="1020.539" y="337.572" transform="matrix(-1.836970e-16 1 -1 -1.836970e-16 1377.572 -682.9674)" style="fill:#FFFFFF;" width="19.46" height="19.461"/>
				
					<rect x="1020.539" y="357.032" transform="matrix(-1.836970e-16 1 -1 -1.836970e-16 1397.0325 -663.507)" style="fill:#C7C7C7;" width="19.461" height="19.461"/>
				
					<rect x="1020.54" y="376.493" transform="matrix(-1.836970e-16 1 -1 -1.836970e-16 1416.4928 -644.0465)" style="fill:#FFFFFF;" width="19.46" height="19.461"/>
				
					<rect x="1020.539" y="395.953" transform="matrix(-1.836970e-16 1 -1 -1.836970e-16 1435.9532 -624.5861)" style="fill:#C7C7C7;" width="19.461" height="19.461"/>
				
					<rect x="1020.539" y="415.414" transform="matrix(-1.836970e-16 1 -1 -1.836970e-16 1455.4137 -605.1257)" style="fill:#FFFFFF;" width="19.46" height="19.461"/>
			</g>
			<g>
				
					<rect x="1001.079" y="65.126" transform="matrix(-1.836970e-16 1 -1 -1.836970e-16 1085.6653 -935.9531)" style="fill:#C7C7C7;" width="19.461" height="19.46"/>
				
					<rect x="1001.079" y="84.586" transform="matrix(-1.836970e-16 1 -1 -1.836970e-16 1105.1257 -916.4927)" style="fill:#FFFFFF;" width="19.46" height="19.46"/>
				
					<rect x="1001.079" y="104.047" transform="matrix(-1.836970e-16 1 -1 -1.836970e-16 1124.5862 -897.0322)" style="fill:#C7C7C7;" width="19.461" height="19.46"/>
				
					<rect x="1001.079" y="123.507" transform="matrix(-1.836970e-16 1 -1 -1.836970e-16 1144.0466 -877.5718)" style="fill:#FFFFFF;" width="19.46" height="19.46"/>
				
					<rect x="1001.079" y="142.968" transform="matrix(-1.836970e-16 1 -1 -1.836970e-16 1163.507 -858.1114)" style="fill:#C7C7C7;" width="19.461" height="19.46"/>
				
					<rect x="1001.079" y="162.428" transform="matrix(-1.836970e-16 1 -1 -1.836970e-16 1182.9675 -838.6509)" style="fill:#FFFFFF;" width="19.46" height="19.46"/>
				
					<rect x="1001.079" y="181.889" transform="matrix(-1.836970e-16 1 -1 -1.836970e-16 1202.4279 -819.1905)" style="fill:#C7C7C7;" width="19.46" height="19.46"/>
				
					<rect x="1001.079" y="201.349" transform="matrix(-1.836970e-16 1 -1 -1.836970e-16 1221.8883 -799.73)" style="fill:#FFFFFF;" width="19.461" height="19.46"/>
				
					<rect x="1001.079" y="220.809" transform="matrix(-1.836970e-16 1 -1 -1.836970e-16 1241.3488 -780.2697)" style="fill:#C7C7C7;" width="19.46" height="19.46"/>
				
					<rect x="1001.079" y="240.27" transform="matrix(-1.836970e-16 1 -1 -1.836970e-16 1260.8092 -760.8092)" style="fill:#FFFFFF;" width="19.461" height="19.46"/>
				
					<rect x="1001.079" y="259.73" transform="matrix(-1.836970e-16 1 -1 -1.836970e-16 1280.2697 -741.3488)" style="fill:#C7C7C7;" width="19.46" height="19.46"/>
				
					<rect x="1001.079" y="279.191" transform="matrix(-1.836970e-16 1 -1 -1.836970e-16 1299.73 -721.8883)" style="fill:#FFFFFF;" width="19.461" height="19.46"/>
				
					<rect x="1001.079" y="298.651" transform="matrix(-1.836970e-16 1 -1 -1.836970e-16 1319.1904 -702.4279)" style="fill:#C7C7C7;" width="19.46" height="19.46"/>
				
					<rect x="1001.079" y="318.112" transform="matrix(-1.836970e-16 1 -1 -1.836970e-16 1338.651 -682.9674)" style="fill:#FFFFFF;" width="19.461" height="19.46"/>
				
					<rect x="1001.079" y="337.572" transform="matrix(-1.836970e-16 1 -1 -1.836970e-16 1358.1115 -663.5069)" style="fill:#C7C7C7;" width="19.46" height="19.46"/>
				
					<rect x="1001.079" y="357.033" transform="matrix(-1.836970e-16 1 -1 -1.836970e-16 1377.5719 -644.0464)" style="fill:#FFFFFF;" width="19.461" height="19.46"/>
				
					<rect x="1001.079" y="376.493" transform="matrix(-1.836970e-16 1 -1 -1.836970e-16 1397.0323 -624.5861)" style="fill:#C7C7C7;" width="19.46" height="19.46"/>
				
					<rect x="1001.079" y="395.953" transform="matrix(-1.836970e-16 1 -1 -1.836970e-16 1416.4927 -605.1256)" style="fill:#FFFFFF;" width="19.461" height="19.46"/>
				
					<rect x="1001.079" y="415.414" transform="matrix(-1.836970e-16 1 -1 -1.836970e-16 1435.9531 -585.6652)" style="fill:#C7C7C7;" width="19.46" height="19.46"/>
			</g>
			<g>
				
					<rect x="981.618" y="65.126" transform="matrix(-1.836970e-16 1 -1 -1.836970e-16 1066.2048 -916.4927)" style="fill:#FFFFFF;" width="19.461" height="19.46"/>
				
					<rect x="981.619" y="84.586" transform="matrix(-1.836970e-16 1 -1 -1.836970e-16 1085.6653 -897.0322)" style="fill:#C7C7C7;" width="19.46" height="19.46"/>
				
					<rect x="981.618" y="104.047" transform="matrix(-1.836970e-16 1 -1 -1.836970e-16 1105.1257 -877.5717)" style="fill:#FFFFFF;" width="19.461" height="19.46"/>
				
					<rect x="981.619" y="123.507" transform="matrix(-1.836970e-16 1 -1 -1.836970e-16 1124.5862 -858.1113)" style="fill:#C7C7C7;" width="19.46" height="19.46"/>
				
					<rect x="981.618" y="142.968" transform="matrix(-1.836970e-16 1 -1 -1.836970e-16 1144.0465 -838.6509)" style="fill:#FFFFFF;" width="19.461" height="19.46"/>
				
					<rect x="981.619" y="162.428" transform="matrix(-1.836970e-16 1 -1 -1.836970e-16 1163.5071 -819.1904)" style="fill:#C7C7C7;" width="19.46" height="19.46"/>
				
					<rect x="981.619" y="181.888" transform="matrix(-1.836970e-16 1 -1 -1.836970e-16 1182.9674 -799.73)" style="fill:#FFFFFF;" width="19.46" height="19.46"/>
				
					<rect x="981.618" y="201.349" transform="matrix(-1.836970e-16 1 -1 -1.836970e-16 1202.4279 -780.2696)" style="fill:#C7C7C7;" width="19.461" height="19.46"/>
				
					<rect x="981.619" y="220.809" transform="matrix(-1.836970e-16 1 -1 -1.836970e-16 1221.8883 -760.8092)" style="fill:#FFFFFF;" width="19.46" height="19.46"/>
				
					<rect x="981.618" y="240.27" transform="matrix(-1.836970e-16 1 -1 -1.836970e-16 1241.3488 -741.3488)" style="fill:#C7C7C7;" width="19.461" height="19.46"/>
				
					<rect x="981.619" y="259.73" transform="matrix(-1.836970e-16 1 -1 -1.836970e-16 1260.8092 -721.8883)" style="fill:#FFFFFF;" width="19.46" height="19.46"/>
				
					<rect x="981.618" y="279.191" transform="matrix(-1.836970e-16 1 -1 -1.836970e-16 1280.2695 -702.4279)" style="fill:#C7C7C7;" width="19.461" height="19.46"/>
				
					<rect x="981.619" y="298.651" transform="matrix(-1.836970e-16 1 -1 -1.836970e-16 1299.73 -682.9674)" style="fill:#FFFFFF;" width="19.46" height="19.46"/>
				
					<rect x="981.618" y="318.112" transform="matrix(-1.836970e-16 1 -1 -1.836970e-16 1319.1906 -663.507)" style="fill:#C7C7C7;" width="19.461" height="19.46"/>
				
					<rect x="981.619" y="337.572" transform="matrix(-1.836970e-16 1 -1 -1.836970e-16 1338.651 -644.0464)" style="fill:#FFFFFF;" width="19.46" height="19.46"/>
				
					<rect x="981.618" y="357.033" transform="matrix(-1.836970e-16 1 -1 -1.836970e-16 1358.1115 -624.586)" style="fill:#C7C7C7;" width="19.461" height="19.46"/>
				
					<rect x="981.619" y="376.493" transform="matrix(-1.836970e-16 1 -1 -1.836970e-16 1377.5719 -605.1256)" style="fill:#FFFFFF;" width="19.46" height="19.46"/>
				
					<rect x="981.618" y="395.953" transform="matrix(-1.836970e-16 1 -1 -1.836970e-16 1397.0322 -585.6652)" style="fill:#C7C7C7;" width="19.461" height="19.46"/>
				
					<rect x="981.619" y="415.414" transform="matrix(-1.836970e-16 1 -1 -1.836970e-16 1416.4927 -566.2047)" style="fill:#FFFFFF;" width="19.46" height="19.46"/>
			</g>
			<g>
				
					<rect x="962.158" y="65.126" transform="matrix(-1.836970e-16 1 -1 -1.836970e-16 1046.7444 -897.0323)" style="fill:#C7C7C7;" width="19.461" height="19.46"/>
				
					<rect x="962.158" y="84.586" transform="matrix(-1.836970e-16 1 -1 -1.836970e-16 1066.2048 -877.5718)" style="fill:#FFFFFF;" width="19.46" height="19.46"/>
				
					<rect x="962.158" y="104.047" transform="matrix(-1.836970e-16 1 -1 -1.836970e-16 1085.6653 -858.1113)" style="fill:#C7C7C7;" width="19.461" height="19.46"/>
				
					<rect x="962.158" y="123.507" transform="matrix(-1.836970e-16 1 -1 -1.836970e-16 1105.1257 -838.6509)" style="fill:#FFFFFF;" width="19.46" height="19.46"/>
				
					<rect x="962.158" y="142.968" transform="matrix(-1.836970e-16 1 -1 -1.836970e-16 1124.5862 -819.1906)" style="fill:#C7C7C7;" width="19.461" height="19.46"/>
				
					<rect x="962.158" y="162.428" transform="matrix(-1.836970e-16 1 -1 -1.836970e-16 1144.0466 -799.73)" style="fill:#FFFFFF;" width="19.46" height="19.46"/>
				
					<rect x="962.158" y="181.889" transform="matrix(-1.836970e-16 1 -1 -1.836970e-16 1163.5071 -780.2697)" style="fill:#C7C7C7;" width="19.46" height="19.46"/>
				
					<rect x="962.158" y="201.349" transform="matrix(-1.836970e-16 1 -1 -1.836970e-16 1182.9675 -760.8092)" style="fill:#FFFFFF;" width="19.461" height="19.46"/>
				
					<rect x="962.158" y="220.809" transform="matrix(-1.836970e-16 1 -1 -1.836970e-16 1202.4279 -741.3488)" style="fill:#C7C7C7;" width="19.46" height="19.46"/>
				
					<rect x="962.158" y="240.27" transform="matrix(-1.836970e-16 1 -1 -1.836970e-16 1221.8883 -721.8884)" style="fill:#FFFFFF;" width="19.461" height="19.46"/>
				
					<rect x="962.158" y="259.73" transform="matrix(-1.836970e-16 1 -1 -1.836970e-16 1241.3488 -702.4279)" style="fill:#C7C7C7;" width="19.46" height="19.46"/>
				
					<rect x="962.158" y="279.191" transform="matrix(-1.836970e-16 1 -1 -1.836970e-16 1260.8092 -682.9675)" style="fill:#FFFFFF;" width="19.461" height="19.46"/>
				
					<rect x="962.158" y="298.651" transform="matrix(-1.836970e-16 1 -1 -1.836970e-16 1280.2697 -663.507)" style="fill:#C7C7C7;" width="19.46" height="19.46"/>
				
					<rect x="962.158" y="318.112" transform="matrix(-1.836970e-16 1 -1 -1.836970e-16 1299.7301 -644.0466)" style="fill:#FFFFFF;" width="19.461" height="19.46"/>
				
					<rect x="962.158" y="337.572" transform="matrix(-1.836970e-16 1 -1 -1.836970e-16 1319.1907 -624.5861)" style="fill:#C7C7C7;" width="19.46" height="19.46"/>
				
					<rect x="962.158" y="357.033" transform="matrix(-1.836970e-16 1 -1 -1.836970e-16 1338.6511 -605.1256)" style="fill:#FFFFFF;" width="19.461" height="19.46"/>
				
					<rect x="962.158" y="376.493" transform="matrix(-1.836970e-16 1 -1 -1.836970e-16 1358.1115 -585.6652)" style="fill:#C7C7C7;" width="19.46" height="19.46"/>
				
					<rect x="962.158" y="395.953" transform="matrix(-1.836970e-16 1 -1 -1.836970e-16 1377.5719 -566.2048)" style="fill:#FFFFFF;" width="19.461" height="19.46"/>
				
					<rect x="962.158" y="415.414" transform="matrix(-1.836970e-16 1 -1 -1.836970e-16 1397.0323 -546.7443)" style="fill:#C7C7C7;" width="19.46" height="19.46"/>
			</g>
			<g>
				
					<rect x="942.698" y="65.126" transform="matrix(-1.836970e-16 1 -1 -1.836970e-16 1027.2839 -877.5719)" style="fill:#FFFFFF;" width="19.461" height="19.461"/>
				
					<rect x="942.698" y="84.586" transform="matrix(-1.836970e-16 1 -1 -1.836970e-16 1046.7444 -858.1115)" style="fill:#C7C7C7;" width="19.46" height="19.461"/>
				
					<rect x="942.698" y="104.047" transform="matrix(-1.836970e-16 1 -1 -1.836970e-16 1066.205 -838.6509)" style="fill:#FFFFFF;" width="19.461" height="19.461"/>
				
					<rect x="942.698" y="123.507" transform="matrix(-1.836970e-16 1 -1 -1.836970e-16 1085.6653 -819.1906)" style="fill:#C7C7C7;" width="19.46" height="19.461"/>
				
					<rect x="942.698" y="142.968" transform="matrix(-1.836970e-16 1 -1 -1.836970e-16 1105.1257 -799.7302)" style="fill:#FFFFFF;" width="19.461" height="19.461"/>
				
					<rect x="942.698" y="162.428" transform="matrix(-1.836970e-16 1 -1 -1.836970e-16 1124.5862 -780.2697)" style="fill:#C7C7C7;" width="19.46" height="19.461"/>
				
					<rect x="942.698" y="181.888" transform="matrix(-1.836970e-16 1 -1 -1.836970e-16 1144.0466 -760.8093)" style="fill:#FFFFFF;" width="19.46" height="19.461"/>
				
					<rect x="942.698" y="201.349" transform="matrix(-1.836970e-16 1 -1 -1.836970e-16 1163.5071 -741.3488)" style="fill:#C7C7C7;" width="19.461" height="19.461"/>
				
					<rect x="942.698" y="220.809" transform="matrix(-1.836970e-16 1 -1 -1.836970e-16 1182.9675 -721.8884)" style="fill:#FFFFFF;" width="19.46" height="19.461"/>
				
					<rect x="942.698" y="240.27" transform="matrix(-1.836970e-16 1 -1 -1.836970e-16 1202.428 -702.4279)" style="fill:#C7C7C7;" width="19.461" height="19.461"/>
				
					<rect x="942.698" y="259.73" transform="matrix(-1.836970e-16 1 -1 -1.836970e-16 1221.8884 -682.9675)" style="fill:#FFFFFF;" width="19.46" height="19.461"/>
				
					<rect x="942.698" y="279.191" transform="matrix(-1.836970e-16 1 -1 -1.836970e-16 1241.3488 -663.5071)" style="fill:#C7C7C7;" width="19.461" height="19.461"/>
				
					<rect x="942.698" y="298.651" transform="matrix(-1.836970e-16 1 -1 -1.836970e-16 1260.8092 -644.0466)" style="fill:#FFFFFF;" width="19.46" height="19.461"/>
				
					<rect x="942.698" y="318.112" transform="matrix(-1.836970e-16 1 -1 -1.836970e-16 1280.2698 -624.5861)" style="fill:#C7C7C7;" width="19.461" height="19.461"/>
				
					<rect x="942.698" y="337.572" transform="matrix(-1.836970e-16 1 -1 -1.836970e-16 1299.7302 -605.1257)" style="fill:#FFFFFF;" width="19.46" height="19.461"/>
				
					<rect x="942.698" y="357.033" transform="matrix(-1.836970e-16 1 -1 -1.836970e-16 1319.1907 -585.6652)" style="fill:#C7C7C7;" width="19.461" height="19.461"/>
				
					<rect x="942.698" y="376.493" transform="matrix(-1.836970e-16 1 -1 -1.836970e-16 1338.6511 -566.2048)" style="fill:#FFFFFF;" width="19.46" height="19.461"/>
				
					<rect x="942.698" y="395.953" transform="matrix(-1.836970e-16 1 -1 -1.836970e-16 1358.1115 -546.7444)" style="fill:#C7C7C7;" width="19.461" height="19.461"/>
				
					<rect x="942.698" y="415.414" transform="matrix(-1.836970e-16 1 -1 -1.836970e-16 1377.5719 -527.2839)" style="fill:#FFFFFF;" width="19.46" height="19.461"/>
			</g>
			<g>
				
					<rect x="923.237" y="65.126" transform="matrix(-1.836970e-16 1 -1 -1.836970e-16 1007.8235 -858.1115)" style="fill:#C7C7C7;" width="19.461" height="19.46"/>
				
					<rect x="923.237" y="84.586" transform="matrix(-1.836970e-16 1 -1 -1.836970e-16 1027.2839 -838.651)" style="fill:#FFFFFF;" width="19.46" height="19.46"/>
				
					<rect x="923.237" y="104.047" transform="matrix(-1.836970e-16 1 -1 -1.836970e-16 1046.7445 -819.1905)" style="fill:#C7C7C7;" width="19.461" height="19.46"/>
				
					<rect x="923.237" y="123.507" transform="matrix(-1.836970e-16 1 -1 -1.836970e-16 1066.2048 -799.7301)" style="fill:#FFFFFF;" width="19.46" height="19.46"/>
				
					<rect x="923.237" y="142.968" transform="matrix(-1.836970e-16 1 -1 -1.836970e-16 1085.6653 -780.2697)" style="fill:#C7C7C7;" width="19.461" height="19.46"/>
				
					<rect x="923.237" y="162.428" transform="matrix(-1.836970e-16 1 -1 -1.836970e-16 1105.1257 -760.8092)" style="fill:#FFFFFF;" width="19.46" height="19.46"/>
				
					<rect x="923.237" y="181.889" transform="matrix(-1.836970e-16 1 -1 -1.836970e-16 1124.5862 -741.3488)" style="fill:#C7C7C7;" width="19.46" height="19.46"/>
				
					<rect x="923.237" y="201.349" transform="matrix(-1.836970e-16 1 -1 -1.836970e-16 1144.0466 -721.8883)" style="fill:#FFFFFF;" width="19.461" height="19.46"/>
				
					<rect x="923.237" y="220.809" transform="matrix(-1.836970e-16 1 -1 -1.836970e-16 1163.5071 -702.4279)" style="fill:#C7C7C7;" width="19.46" height="19.46"/>
				
					<rect x="923.237" y="240.27" transform="matrix(-1.836970e-16 1 -1 -1.836970e-16 1182.9675 -682.9675)" style="fill:#FFFFFF;" width="19.461" height="19.46"/>
				
					<rect x="923.237" y="259.73" transform="matrix(-1.836970e-16 1 -1 -1.836970e-16 1202.428 -663.507)" style="fill:#C7C7C7;" width="19.46" height="19.46"/>
				
					<rect x="923.237" y="279.191" transform="matrix(-1.836970e-16 1 -1 -1.836970e-16 1221.8883 -644.0466)" style="fill:#FFFFFF;" width="19.461" height="19.46"/>
				
					<rect x="923.237" y="298.651" transform="matrix(-1.836970e-16 1 -1 -1.836970e-16 1241.3488 -624.5862)" style="fill:#C7C7C7;" width="19.46" height="19.46"/>
				
					<rect x="923.237" y="318.112" transform="matrix(-1.836970e-16 1 -1 -1.836970e-16 1260.8093 -605.1257)" style="fill:#FFFFFF;" width="19.461" height="19.46"/>
				
					<rect x="923.237" y="337.572" transform="matrix(-1.836970e-16 1 -1 -1.836970e-16 1280.2698 -585.6652)" style="fill:#C7C7C7;" width="19.46" height="19.46"/>
				
					<rect x="923.237" y="357.033" transform="matrix(-1.836970e-16 1 -1 -1.836970e-16 1299.7302 -566.2047)" style="fill:#FFFFFF;" width="19.461" height="19.46"/>
				
					<rect x="923.237" y="376.493" transform="matrix(-1.836970e-16 1 -1 -1.836970e-16 1319.1907 -546.7443)" style="fill:#C7C7C7;" width="19.46" height="19.46"/>
				
					<rect x="923.237" y="395.953" transform="matrix(-1.836970e-16 1 -1 -1.836970e-16 1338.651 -527.2839)" style="fill:#FFFFFF;" width="19.461" height="19.46"/>
				
					<rect x="923.237" y="415.414" transform="matrix(-1.836970e-16 1 -1 -1.836970e-16 1358.1115 -507.8235)" style="fill:#C7C7C7;" width="19.46" height="19.46"/>
			</g>
			<g>
				
					<rect x="903.777" y="65.126" transform="matrix(-1.836970e-16 1 -1 -1.836970e-16 988.3631 -838.651)" style="fill:#FFFFFF;" width="19.461" height="19.46"/>
				
					<rect x="903.777" y="84.586" transform="matrix(-1.836970e-16 1 -1 -1.836970e-16 1007.8235 -819.1906)" style="fill:#C7C7C7;" width="19.46" height="19.46"/>
				
					<rect x="903.777" y="104.047" transform="matrix(-1.836970e-16 1 -1 -1.836970e-16 1027.2841 -799.73)" style="fill:#FFFFFF;" width="19.461" height="19.46"/>
				
					<rect x="903.777" y="123.507" transform="matrix(-1.836970e-16 1 -1 -1.836970e-16 1046.7444 -780.2697)" style="fill:#C7C7C7;" width="19.46" height="19.46"/>
				
					<rect x="903.777" y="142.968" transform="matrix(-1.836970e-16 1 -1 -1.836970e-16 1066.2048 -760.8092)" style="fill:#FFFFFF;" width="19.461" height="19.46"/>
				
					<rect x="903.777" y="162.428" transform="matrix(-1.836970e-16 1 -1 -1.836970e-16 1085.6653 -741.3488)" style="fill:#C7C7C7;" width="19.46" height="19.46"/>
				
					<rect x="903.777" y="181.888" transform="matrix(-1.836970e-16 1 -1 -1.836970e-16 1105.1257 -721.8883)" style="fill:#FFFFFF;" width="19.46" height="19.46"/>
				
					<rect x="903.777" y="201.349" transform="matrix(-1.836970e-16 1 -1 -1.836970e-16 1124.5862 -702.4279)" style="fill:#C7C7C7;" width="19.461" height="19.46"/>
				
					<rect x="903.777" y="220.809" transform="matrix(-1.836970e-16 1 -1 -1.836970e-16 1144.0466 -682.9675)" style="fill:#FFFFFF;" width="19.46" height="19.46"/>
				
					<rect x="903.777" y="240.27" transform="matrix(-1.836970e-16 1 -1 -1.836970e-16 1163.5071 -663.507)" style="fill:#C7C7C7;" width="19.461" height="19.46"/>
				
					<rect x="903.777" y="259.73" transform="matrix(-1.836970e-16 1 -1 -1.836970e-16 1182.9675 -644.0466)" style="fill:#FFFFFF;" width="19.46" height="19.46"/>
				
					<rect x="903.777" y="279.191" transform="matrix(-1.836970e-16 1 -1 -1.836970e-16 1202.4279 -624.5862)" style="fill:#C7C7C7;" width="19.461" height="19.46"/>
				
					<rect x="903.777" y="298.651" transform="matrix(-1.836970e-16 1 -1 -1.836970e-16 1221.8883 -605.1257)" style="fill:#FFFFFF;" width="19.46" height="19.46"/>
				
					<rect x="903.777" y="318.112" transform="matrix(-1.836970e-16 1 -1 -1.836970e-16 1241.3489 -585.6652)" style="fill:#C7C7C7;" width="19.461" height="19.46"/>
				
					<rect x="903.777" y="337.572" transform="matrix(-1.836970e-16 1 -1 -1.836970e-16 1260.8093 -566.2047)" style="fill:#FFFFFF;" width="19.46" height="19.46"/>
				
					<rect x="903.777" y="357.033" transform="matrix(-1.836970e-16 1 -1 -1.836970e-16 1280.2698 -546.7443)" style="fill:#C7C7C7;" width="19.461" height="19.46"/>
				
					<rect x="903.777" y="376.493" transform="matrix(-1.836970e-16 1 -1 -1.836970e-16 1299.7302 -527.2839)" style="fill:#FFFFFF;" width="19.46" height="19.46"/>
				
					<rect x="903.777" y="395.953" transform="matrix(-1.836970e-16 1 -1 -1.836970e-16 1319.1906 -507.8235)" style="fill:#C7C7C7;" width="19.461" height="19.46"/>
				
					<rect x="903.777" y="415.414" transform="matrix(-1.836970e-16 1 -1 -1.836970e-16 1338.651 -488.363)" style="fill:#FFFFFF;" width="19.46" height="19.46"/>
			</g>
			<g>
				
					<rect x="884.316" y="65.126" transform="matrix(-1.836970e-16 1 -1 -1.836970e-16 968.9026 -819.1906)" style="fill:#C7C7C7;" width="19.461" height="19.46"/>
				
					<rect x="884.316" y="84.586" transform="matrix(-1.836970e-16 1 -1 -1.836970e-16 988.3631 -799.7301)" style="fill:#FFFFFF;" width="19.46" height="19.46"/>
				
					<rect x="884.316" y="104.047" transform="matrix(-1.836970e-16 1 -1 -1.836970e-16 1007.8236 -780.2696)" style="fill:#C7C7C7;" width="19.461" height="19.46"/>
				
					<rect x="884.316" y="123.507" transform="matrix(-1.836970e-16 1 -1 -1.836970e-16 1027.2839 -760.8092)" style="fill:#FFFFFF;" width="19.46" height="19.46"/>
				
					<rect x="884.316" y="142.968" transform="matrix(-1.836970e-16 1 -1 -1.836970e-16 1046.7444 -741.3488)" style="fill:#C7C7C7;" width="19.461" height="19.46"/>
				
					<rect x="884.316" y="162.428" transform="matrix(-1.836970e-16 1 -1 -1.836970e-16 1066.2048 -721.8883)" style="fill:#FFFFFF;" width="19.46" height="19.46"/>
				
					<rect x="884.316" y="181.889" transform="matrix(-1.836970e-16 1 -1 -1.836970e-16 1085.6653 -702.4279)" style="fill:#C7C7C7;" width="19.46" height="19.46"/>
				
					<rect x="884.316" y="201.349" transform="matrix(-1.836970e-16 1 -1 -1.836970e-16 1105.1257 -682.9674)" style="fill:#FFFFFF;" width="19.461" height="19.46"/>
				
					<rect x="884.316" y="220.809" transform="matrix(-1.836970e-16 1 -1 -1.836970e-16 1124.5862 -663.507)" style="fill:#C7C7C7;" width="19.46" height="19.46"/>
				
					<rect x="884.316" y="240.27" transform="matrix(-1.836970e-16 1 -1 -1.836970e-16 1144.0466 -644.0466)" style="fill:#FFFFFF;" width="19.461" height="19.46"/>
				
					<rect x="884.316" y="259.73" transform="matrix(-1.836970e-16 1 -1 -1.836970e-16 1163.5071 -624.5861)" style="fill:#C7C7C7;" width="19.46" height="19.46"/>
				
					<rect x="884.316" y="279.191" transform="matrix(-1.836970e-16 1 -1 -1.836970e-16 1182.9674 -605.1257)" style="fill:#FFFFFF;" width="19.461" height="19.46"/>
				
					<rect x="884.316" y="298.651" transform="matrix(-1.836970e-16 1 -1 -1.836970e-16 1202.4279 -585.6653)" style="fill:#C7C7C7;" width="19.46" height="19.46"/>
				
					<rect x="884.316" y="318.112" transform="matrix(-1.836970e-16 1 -1 -1.836970e-16 1221.8884 -566.2048)" style="fill:#FFFFFF;" width="19.461" height="19.46"/>
				
					<rect x="884.316" y="337.572" transform="matrix(-1.836970e-16 1 -1 -1.836970e-16 1241.3489 -546.7443)" style="fill:#C7C7C7;" width="19.46" height="19.46"/>
				
					<rect x="884.316" y="357.033" transform="matrix(-1.836970e-16 1 -1 -1.836970e-16 1260.8093 -527.2838)" style="fill:#FFFFFF;" width="19.461" height="19.46"/>
				
					<rect x="884.316" y="376.493" transform="matrix(-1.836970e-16 1 -1 -1.836970e-16 1280.2698 -507.8234)" style="fill:#C7C7C7;" width="19.46" height="19.46"/>
				
					<rect x="884.316" y="395.953" transform="matrix(-1.836970e-16 1 -1 -1.836970e-16 1299.7301 -488.363)" style="fill:#FFFFFF;" width="19.461" height="19.46"/>
				
					<rect x="884.316" y="415.414" transform="matrix(-1.836970e-16 1 -1 -1.836970e-16 1319.1906 -468.9026)" style="fill:#C7C7C7;" width="19.46" height="19.46"/>
			</g>
			<g>
				
					<rect x="864.856" y="65.126" transform="matrix(-1.836970e-16 1 -1 -1.836970e-16 949.4421 -799.73)" style="fill:#FFFFFF;" width="19.461" height="19.461"/>
				
					<rect x="864.856" y="84.586" transform="matrix(-1.836970e-16 1 -1 -1.836970e-16 968.9026 -780.2696)" style="fill:#C7C7C7;" width="19.46" height="19.461"/>
				
					<rect x="864.856" y="104.047" transform="matrix(-1.836970e-16 1 -1 -1.836970e-16 988.3631 -760.8091)" style="fill:#FFFFFF;" width="19.461" height="19.461"/>
				
					<rect x="864.856" y="123.507" transform="matrix(-1.836970e-16 1 -1 -1.836970e-16 1007.8235 -741.3487)" style="fill:#C7C7C7;" width="19.46" height="19.461"/>
				
					<rect x="864.856" y="142.967" transform="matrix(-1.836970e-16 1 -1 -1.836970e-16 1027.2839 -721.8883)" style="fill:#FFFFFF;" width="19.461" height="19.461"/>
				
					<rect x="864.856" y="162.428" transform="matrix(-1.836970e-16 1 -1 -1.836970e-16 1046.7444 -702.4278)" style="fill:#C7C7C7;" width="19.46" height="19.461"/>
				
					<rect x="864.856" y="181.888" transform="matrix(-1.836970e-16 1 -1 -1.836970e-16 1066.2048 -682.9674)" style="fill:#FFFFFF;" width="19.46" height="19.461"/>
				
					<rect x="864.856" y="201.349" transform="matrix(-1.836970e-16 1 -1 -1.836970e-16 1085.6653 -663.507)" style="fill:#C7C7C7;" width="19.461" height="19.461"/>
				
					<rect x="864.856" y="220.809" transform="matrix(-1.836970e-16 1 -1 -1.836970e-16 1105.1256 -644.0465)" style="fill:#FFFFFF;" width="19.46" height="19.461"/>
				
					<rect x="864.856" y="240.27" transform="matrix(-1.836970e-16 1 -1 -1.836970e-16 1124.5861 -624.5861)" style="fill:#C7C7C7;" width="19.461" height="19.461"/>
				
					<rect x="864.856" y="259.73" transform="matrix(-1.836970e-16 1 -1 -1.836970e-16 1144.0465 -605.1256)" style="fill:#FFFFFF;" width="19.46" height="19.461"/>
				
					<rect x="864.856" y="279.191" transform="matrix(-1.836970e-16 1 -1 -1.836970e-16 1163.507 -585.6652)" style="fill:#C7C7C7;" width="19.461" height="19.461"/>
				
					<rect x="864.856" y="298.651" transform="matrix(-1.836970e-16 1 -1 -1.836970e-16 1182.9674 -566.2048)" style="fill:#FFFFFF;" width="19.46" height="19.461"/>
				
					<rect x="864.856" y="318.112" transform="matrix(-1.836970e-16 1 -1 -1.836970e-16 1202.4279 -546.7443)" style="fill:#C7C7C7;" width="19.461" height="19.461"/>
				
					<rect x="864.856" y="337.572" transform="matrix(-1.836970e-16 1 -1 -1.836970e-16 1221.8884 -527.2838)" style="fill:#FFFFFF;" width="19.46" height="19.461"/>
				
					<rect x="864.856" y="357.032" transform="matrix(-1.836970e-16 1 -1 -1.836970e-16 1241.3489 -507.8233)" style="fill:#C7C7C7;" width="19.461" height="19.461"/>
				
					<rect x="864.856" y="376.493" transform="matrix(-1.836970e-16 1 -1 -1.836970e-16 1260.8092 -488.3629)" style="fill:#FFFFFF;" width="19.46" height="19.461"/>
				
					<rect x="864.856" y="395.953" transform="matrix(-1.836970e-16 1 -1 -1.836970e-16 1280.2697 -468.9025)" style="fill:#C7C7C7;" width="19.461" height="19.461"/>
				
					<rect x="864.856" y="415.414" transform="matrix(-1.836970e-16 1 -1 -1.836970e-16 1299.7301 -449.4421)" style="fill:#FFFFFF;" width="19.46" height="19.461"/>
			</g>
			<g>
				
					<rect x="845.395" y="65.126" transform="matrix(-1.836970e-16 1 -1 -1.836970e-16 929.9816 -780.2695)" style="fill:#C7C7C7;" width="19.461" height="19.46"/>
				
					<rect x="845.395" y="84.586" transform="matrix(-1.836970e-16 1 -1 -1.836970e-16 949.4421 -760.8091)" style="fill:#FFFFFF;" width="19.46" height="19.46"/>
				
					<rect x="845.395" y="104.047" transform="matrix(-1.836970e-16 1 -1 -1.836970e-16 968.9026 -741.3486)" style="fill:#C7C7C7;" width="19.461" height="19.46"/>
				
					<rect x="845.396" y="123.507" transform="matrix(-1.836970e-16 1 -1 -1.836970e-16 988.363 -721.8882)" style="fill:#FFFFFF;" width="19.46" height="19.46"/>
				
					<rect x="845.395" y="142.968" transform="matrix(-1.836970e-16 1 -1 -1.836970e-16 1007.8234 -702.4278)" style="fill:#C7C7C7;" width="19.461" height="19.46"/>
				
					<rect x="845.395" y="162.428" transform="matrix(-1.836970e-16 1 -1 -1.836970e-16 1027.2839 -682.9673)" style="fill:#FFFFFF;" width="19.46" height="19.46"/>
				
					<rect x="845.395" y="181.889" transform="matrix(-1.836970e-16 1 -1 -1.836970e-16 1046.7443 -663.5069)" style="fill:#C7C7C7;" width="19.46" height="19.46"/>
				
					<rect x="845.395" y="201.349" transform="matrix(-1.836970e-16 1 -1 -1.836970e-16 1066.2047 -644.0464)" style="fill:#FFFFFF;" width="19.461" height="19.46"/>
				
					<rect x="845.395" y="220.809" transform="matrix(-1.836970e-16 1 -1 -1.836970e-16 1085.6652 -624.5861)" style="fill:#C7C7C7;" width="19.46" height="19.46"/>
				
					<rect x="845.395" y="240.27" transform="matrix(-1.836970e-16 1 -1 -1.836970e-16 1105.1256 -605.1256)" style="fill:#FFFFFF;" width="19.461" height="19.46"/>
				
					<rect x="845.395" y="259.73" transform="matrix(-1.836970e-16 1 -1 -1.836970e-16 1124.5861 -585.6652)" style="fill:#C7C7C7;" width="19.46" height="19.46"/>
				
					<rect x="845.395" y="279.191" transform="matrix(-1.836970e-16 1 -1 -1.836970e-16 1144.0464 -566.2047)" style="fill:#FFFFFF;" width="19.461" height="19.46"/>
				
					<rect x="845.395" y="298.651" transform="matrix(-1.836970e-16 1 -1 -1.836970e-16 1163.5068 -546.7443)" style="fill:#C7C7C7;" width="19.46" height="19.46"/>
				
					<rect x="845.395" y="318.112" transform="matrix(-1.836970e-16 1 -1 -1.836970e-16 1182.9674 -527.2838)" style="fill:#FFFFFF;" width="19.461" height="19.46"/>
				
					<rect x="845.395" y="337.572" transform="matrix(-1.836970e-16 1 -1 -1.836970e-16 1202.4279 -507.8233)" style="fill:#C7C7C7;" width="19.46" height="19.46"/>
				
					<rect x="845.395" y="357.033" transform="matrix(-1.836970e-16 1 -1 -1.836970e-16 1221.8883 -488.3628)" style="fill:#FFFFFF;" width="19.461" height="19.46"/>
				
					<rect x="845.395" y="376.493" transform="matrix(-1.836970e-16 1 -1 -1.836970e-16 1241.3488 -468.9024)" style="fill:#C7C7C7;" width="19.46" height="19.46"/>
				
					<rect x="845.395" y="395.953" transform="matrix(-1.836970e-16 1 -1 -1.836970e-16 1260.8091 -449.442)" style="fill:#FFFFFF;" width="19.461" height="19.46"/>
				
					<rect x="845.395" y="415.414" transform="matrix(-1.836970e-16 1 -1 -1.836970e-16 1280.2695 -429.9816)" style="fill:#C7C7C7;" width="19.46" height="19.46"/>
			</g>
			<g>
				
					<rect x="825.935" y="65.126" transform="matrix(-1.836970e-16 1 -1 -1.836970e-16 910.5214 -760.8093)" style="fill:#FFFFFF;" width="19.461" height="19.46"/>
				
					<rect x="825.935" y="84.586" transform="matrix(-1.836970e-16 1 -1 -1.836970e-16 929.9818 -741.3488)" style="fill:#C7C7C7;" width="19.46" height="19.46"/>
				
					<rect x="825.935" y="104.047" transform="matrix(-1.836970e-16 1 -1 -1.836970e-16 949.4423 -721.8883)" style="fill:#FFFFFF;" width="19.461" height="19.46"/>
				
					<rect x="825.935" y="123.507" transform="matrix(-1.836970e-16 1 -1 -1.836970e-16 968.9027 -702.4279)" style="fill:#C7C7C7;" width="19.46" height="19.46"/>
				
					<rect x="825.935" y="142.968" transform="matrix(-1.836970e-16 1 -1 -1.836970e-16 988.3631 -682.9675)" style="fill:#FFFFFF;" width="19.461" height="19.46"/>
				
					<rect x="825.935" y="162.428" transform="matrix(-1.836970e-16 1 -1 -1.836970e-16 1007.8236 -663.507)" style="fill:#C7C7C7;" width="19.46" height="19.46"/>
				
					<rect x="825.935" y="181.889" transform="matrix(-1.836970e-16 1 -1 -1.836970e-16 1027.2839 -644.0466)" style="fill:#FFFFFF;" width="19.46" height="19.46"/>
				
					<rect x="825.935" y="201.349" transform="matrix(-1.836970e-16 1 -1 -1.836970e-16 1046.7444 -624.5861)" style="fill:#C7C7C7;" width="19.461" height="19.46"/>
				
					<rect x="825.935" y="220.809" transform="matrix(-1.836970e-16 1 -1 -1.836970e-16 1066.2048 -605.1257)" style="fill:#FFFFFF;" width="19.46" height="19.46"/>
				
					<rect x="825.935" y="240.27" transform="matrix(-1.836970e-16 1 -1 -1.836970e-16 1085.6653 -585.6653)" style="fill:#C7C7C7;" width="19.461" height="19.46"/>
				
					<rect x="825.935" y="259.73" transform="matrix(-1.836970e-16 1 -1 -1.836970e-16 1105.1257 -566.2048)" style="fill:#FFFFFF;" width="19.46" height="19.46"/>
				
					<rect x="825.935" y="279.191" transform="matrix(-1.836970e-16 1 -1 -1.836970e-16 1124.5862 -546.7444)" style="fill:#C7C7C7;" width="19.461" height="19.46"/>
				
					<rect x="825.935" y="298.651" transform="matrix(-1.836970e-16 1 -1 -1.836970e-16 1144.0466 -527.284)" style="fill:#FFFFFF;" width="19.46" height="19.46"/>
				
					<rect x="825.935" y="318.112" transform="matrix(-1.836970e-16 1 -1 -1.836970e-16 1163.5071 -507.8235)" style="fill:#C7C7C7;" width="19.461" height="19.46"/>
				
					<rect x="825.935" y="337.572" transform="matrix(-1.836970e-16 1 -1 -1.836970e-16 1182.9677 -488.363)" style="fill:#FFFFFF;" width="19.46" height="19.46"/>
				
					<rect x="825.935" y="357.033" transform="matrix(-1.836970e-16 1 -1 -1.836970e-16 1202.4281 -468.9026)" style="fill:#C7C7C7;" width="19.461" height="19.46"/>
				
					<rect x="825.935" y="376.493" transform="matrix(-1.836970e-16 1 -1 -1.836970e-16 1221.8884 -449.4421)" style="fill:#FFFFFF;" width="19.46" height="19.46"/>
				
					<rect x="825.935" y="395.953" transform="matrix(-1.836970e-16 1 -1 -1.836970e-16 1241.3489 -429.9818)" style="fill:#C7C7C7;" width="19.461" height="19.46"/>
				
					<rect x="825.935" y="415.414" transform="matrix(-1.836970e-16 1 -1 -1.836970e-16 1260.8093 -410.5213)" style="fill:#FFFFFF;" width="19.46" height="19.46"/>
			</g>
			<g>
				
					<rect x="806.475" y="65.126" transform="matrix(-1.836970e-16 1 -1 -1.836970e-16 891.0609 -741.3488)" style="fill:#C7C7C7;" width="19.461" height="19.461"/>
				
					<rect x="806.475" y="84.586" transform="matrix(-1.836970e-16 1 -1 -1.836970e-16 910.5214 -721.8884)" style="fill:#FFFFFF;" width="19.46" height="19.461"/>
				
					<rect x="806.475" y="104.047" transform="matrix(-1.836970e-16 1 -1 -1.836970e-16 929.9819 -702.4279)" style="fill:#C7C7C7;" width="19.461" height="19.461"/>
				
					<rect x="806.475" y="123.507" transform="matrix(-1.836970e-16 1 -1 -1.836970e-16 949.4423 -682.9675)" style="fill:#FFFFFF;" width="19.46" height="19.461"/>
				
					<rect x="806.475" y="142.967" transform="matrix(-1.836970e-16 1 -1 -1.836970e-16 968.9027 -663.5071)" style="fill:#C7C7C7;" width="19.461" height="19.461"/>
				
					<rect x="806.475" y="162.428" transform="matrix(-1.836970e-16 1 -1 -1.836970e-16 988.3632 -644.0466)" style="fill:#FFFFFF;" width="19.46" height="19.461"/>
				
					<rect x="806.475" y="181.888" transform="matrix(-1.836970e-16 1 -1 -1.836970e-16 1007.8236 -624.5862)" style="fill:#C7C7C7;" width="19.46" height="19.461"/>
				
					<rect x="806.475" y="201.349" transform="matrix(-1.836970e-16 1 -1 -1.836970e-16 1027.2841 -605.1257)" style="fill:#FFFFFF;" width="19.461" height="19.461"/>
				
					<rect x="806.475" y="220.809" transform="matrix(-1.836970e-16 1 -1 -1.836970e-16 1046.7444 -585.6653)" style="fill:#C7C7C7;" width="19.46" height="19.461"/>
				
					<rect x="806.475" y="240.27" transform="matrix(-1.836970e-16 1 -1 -1.836970e-16 1066.2048 -566.2049)" style="fill:#FFFFFF;" width="19.461" height="19.461"/>
				
					<rect x="806.475" y="259.73" transform="matrix(-1.836970e-16 1 -1 -1.836970e-16 1085.6653 -546.7444)" style="fill:#C7C7C7;" width="19.46" height="19.461"/>
				
					<rect x="806.475" y="279.191" transform="matrix(-1.836970e-16 1 -1 -1.836970e-16 1105.1257 -527.2841)" style="fill:#FFFFFF;" width="19.461" height="19.461"/>
				
					<rect x="806.475" y="298.651" transform="matrix(-1.836970e-16 1 -1 -1.836970e-16 1124.5862 -507.8236)" style="fill:#C7C7C7;" width="19.46" height="19.461"/>
				
					<rect x="806.475" y="318.111" transform="matrix(-1.836970e-16 1 -1 -1.836970e-16 1144.0468 -488.3631)" style="fill:#FFFFFF;" width="19.461" height="19.461"/>
				
					<rect x="806.475" y="337.572" transform="matrix(-1.836970e-16 1 -1 -1.836970e-16 1163.5072 -468.9026)" style="fill:#C7C7C7;" width="19.46" height="19.461"/>
				
					<rect x="806.475" y="357.032" transform="matrix(-1.836970e-16 1 -1 -1.836970e-16 1182.9677 -449.4421)" style="fill:#FFFFFF;" width="19.461" height="19.461"/>
				
					<rect x="806.475" y="376.493" transform="matrix(-1.836970e-16 1 -1 -1.836970e-16 1202.4281 -429.9818)" style="fill:#C7C7C7;" width="19.46" height="19.461"/>
				
					<rect x="806.475" y="395.953" transform="matrix(-1.836970e-16 1 -1 -1.836970e-16 1221.8884 -410.5213)" style="fill:#FFFFFF;" width="19.461" height="19.461"/>
				
					<rect x="806.475" y="415.414" transform="matrix(-1.836970e-16 1 -1 -1.836970e-16 1241.3489 -391.0609)" style="fill:#C7C7C7;" width="19.46" height="19.461"/>
			</g>
			<g>
				
					<rect x="787.014" y="65.126" transform="matrix(-1.836970e-16 1 -1 -1.836970e-16 871.6005 -721.8884)" style="fill:#FFFFFF;" width="19.461" height="19.46"/>
				
					<rect x="787.014" y="84.586" transform="matrix(-1.836970e-16 1 -1 -1.836970e-16 891.0609 -702.4279)" style="fill:#C7C7C7;" width="19.46" height="19.46"/>
				
					<rect x="787.014" y="104.047" transform="matrix(-1.836970e-16 1 -1 -1.836970e-16 910.5214 -682.9674)" style="fill:#FFFFFF;" width="19.461" height="19.46"/>
				
					<rect x="787.014" y="123.507" transform="matrix(-1.836970e-16 1 -1 -1.836970e-16 929.9818 -663.507)" style="fill:#C7C7C7;" width="19.46" height="19.46"/>
				
					<rect x="787.014" y="142.968" transform="matrix(-1.836970e-16 1 -1 -1.836970e-16 949.4422 -644.0466)" style="fill:#FFFFFF;" width="19.461" height="19.46"/>
				
					<rect x="787.014" y="162.428" transform="matrix(-1.836970e-16 1 -1 -1.836970e-16 968.9027 -624.5861)" style="fill:#C7C7C7;" width="19.46" height="19.46"/>
				
					<rect x="787.014" y="181.889" transform="matrix(-1.836970e-16 1 -1 -1.836970e-16 988.3631 -605.1257)" style="fill:#FFFFFF;" width="19.46" height="19.46"/>
				
					<rect x="787.014" y="201.349" transform="matrix(-1.836970e-16 1 -1 -1.836970e-16 1007.8235 -585.6652)" style="fill:#C7C7C7;" width="19.461" height="19.46"/>
				
					<rect x="787.014" y="220.809" transform="matrix(-1.836970e-16 1 -1 -1.836970e-16 1027.2839 -566.2048)" style="fill:#FFFFFF;" width="19.46" height="19.46"/>
				
					<rect x="787.014" y="240.27" transform="matrix(-1.836970e-16 1 -1 -1.836970e-16 1046.7444 -546.7444)" style="fill:#C7C7C7;" width="19.461" height="19.46"/>
				
					<rect x="787.014" y="259.73" transform="matrix(-1.836970e-16 1 -1 -1.836970e-16 1066.2048 -527.2839)" style="fill:#FFFFFF;" width="19.46" height="19.46"/>
				
					<rect x="787.014" y="279.191" transform="matrix(-1.836970e-16 1 -1 -1.836970e-16 1085.6653 -507.8235)" style="fill:#C7C7C7;" width="19.461" height="19.46"/>
				
					<rect x="787.014" y="298.651" transform="matrix(-1.836970e-16 1 -1 -1.836970e-16 1105.1257 -488.3631)" style="fill:#FFFFFF;" width="19.46" height="19.46"/>
				
					<rect x="787.014" y="318.112" transform="matrix(-1.836970e-16 1 -1 -1.836970e-16 1124.5862 -468.9026)" style="fill:#C7C7C7;" width="19.461" height="19.46"/>
				
					<rect x="787.014" y="337.572" transform="matrix(-1.836970e-16 1 -1 -1.836970e-16 1144.0468 -449.4421)" style="fill:#FFFFFF;" width="19.46" height="19.46"/>
				
					<rect x="787.014" y="357.033" transform="matrix(-1.836970e-16 1 -1 -1.836970e-16 1163.5072 -429.9816)" style="fill:#C7C7C7;" width="19.461" height="19.46"/>
				
					<rect x="787.014" y="376.493" transform="matrix(-1.836970e-16 1 -1 -1.836970e-16 1182.9675 -410.5212)" style="fill:#FFFFFF;" width="19.46" height="19.46"/>
				
					<rect x="787.014" y="395.953" transform="matrix(-1.836970e-16 1 -1 -1.836970e-16 1202.428 -391.0609)" style="fill:#C7C7C7;" width="19.461" height="19.46"/>
				
					<rect x="787.014" y="415.414" transform="matrix(-1.836970e-16 1 -1 -1.836970e-16 1221.8884 -371.6004)" style="fill:#FFFFFF;" width="19.46" height="19.46"/>
			</g>
			<g>
				
					<rect x="767.554" y="65.126" transform="matrix(-1.836970e-16 1 -1 -1.836970e-16 852.14 -702.4279)" style="fill:#C7C7C7;" width="19.461" height="19.461"/>
				
					<rect x="767.554" y="84.586" transform="matrix(-1.836970e-16 1 -1 -1.836970e-16 871.6005 -682.9675)" style="fill:#FFFFFF;" width="19.46" height="19.461"/>
				
					<rect x="767.554" y="104.047" transform="matrix(-1.836970e-16 1 -1 -1.836970e-16 891.0609 -663.507)" style="fill:#C7C7C7;" width="19.461" height="19.461"/>
				
					<rect x="767.554" y="123.507" transform="matrix(-1.836970e-16 1 -1 -1.836970e-16 910.5214 -644.0466)" style="fill:#FFFFFF;" width="19.46" height="19.461"/>
				
					<rect x="767.554" y="142.968" transform="matrix(-1.836970e-16 1 -1 -1.836970e-16 929.9818 -624.5861)" style="fill:#C7C7C7;" width="19.461" height="19.461"/>
				
					<rect x="767.554" y="162.428" transform="matrix(-1.836970e-16 1 -1 -1.836970e-16 949.4423 -605.1257)" style="fill:#FFFFFF;" width="19.46" height="19.461"/>
				
					<rect x="767.554" y="181.888" transform="matrix(-1.836970e-16 1 -1 -1.836970e-16 968.9026 -585.6652)" style="fill:#C7C7C7;" width="19.46" height="19.461"/>
				
					<rect x="767.554" y="201.349" transform="matrix(-1.836970e-16 1 -1 -1.836970e-16 988.3631 -566.2048)" style="fill:#FFFFFF;" width="19.461" height="19.461"/>
				
					<rect x="767.554" y="220.809" transform="matrix(-1.836970e-16 1 -1 -1.836970e-16 1007.8235 -546.7444)" style="fill:#C7C7C7;" width="19.46" height="19.461"/>
				
					<rect x="767.554" y="240.27" transform="matrix(-1.836970e-16 1 -1 -1.836970e-16 1027.2839 -527.2839)" style="fill:#FFFFFF;" width="19.461" height="19.461"/>
				
					<rect x="767.554" y="259.73" transform="matrix(-1.836970e-16 1 -1 -1.836970e-16 1046.7444 -507.8235)" style="fill:#C7C7C7;" width="19.46" height="19.461"/>
				
					<rect x="767.554" y="279.191" transform="matrix(-1.836970e-16 1 -1 -1.836970e-16 1066.2048 -488.3631)" style="fill:#FFFFFF;" width="19.461" height="19.461"/>
				
					<rect x="767.554" y="298.651" transform="matrix(-1.836970e-16 1 -1 -1.836970e-16 1085.6653 -468.9026)" style="fill:#C7C7C7;" width="19.46" height="19.461"/>
				
					<rect x="767.554" y="318.112" transform="matrix(-1.836970e-16 1 -1 -1.836970e-16 1105.1257 -449.4421)" style="fill:#FFFFFF;" width="19.461" height="19.461"/>
				
					<rect x="767.554" y="337.572" transform="matrix(-1.836970e-16 1 -1 -1.836970e-16 1124.5863 -429.9816)" style="fill:#C7C7C7;" width="19.46" height="19.461"/>
				
					<rect x="767.554" y="357.033" transform="matrix(-1.836970e-16 1 -1 -1.836970e-16 1144.0468 -410.5212)" style="fill:#FFFFFF;" width="19.461" height="19.461"/>
				
					<rect x="767.554" y="376.493" transform="matrix(-1.836970e-16 1 -1 -1.836970e-16 1163.5071 -391.0608)" style="fill:#C7C7C7;" width="19.46" height="19.461"/>
				
					<rect x="767.554" y="395.953" transform="matrix(-1.836970e-16 1 -1 -1.836970e-16 1182.9675 -371.6004)" style="fill:#FFFFFF;" width="19.461" height="19.461"/>
				
					<rect x="767.554" y="415.414" transform="matrix(-1.836970e-16 1 -1 -1.836970e-16 1202.428 -352.14)" style="fill:#C7C7C7;" width="19.46" height="19.461"/>
			</g>
			<g>
				
					<rect x="748.093" y="65.126" transform="matrix(-1.836970e-16 1 -1 -1.836970e-16 832.6796 -682.9674)" style="fill:#FFFFFF;" width="19.461" height="19.46"/>
				
					<rect x="748.093" y="84.586" transform="matrix(-1.836970e-16 1 -1 -1.836970e-16 852.14 -663.507)" style="fill:#C7C7C7;" width="19.46" height="19.46"/>
				
					<rect x="748.093" y="104.047" transform="matrix(-1.836970e-16 1 -1 -1.836970e-16 871.6005 -644.0465)" style="fill:#FFFFFF;" width="19.461" height="19.46"/>
				
					<rect x="748.093" y="123.507" transform="matrix(-1.836970e-16 1 -1 -1.836970e-16 891.0609 -624.5861)" style="fill:#C7C7C7;" width="19.46" height="19.46"/>
				
					<rect x="748.093" y="142.968" transform="matrix(-1.836970e-16 1 -1 -1.836970e-16 910.5213 -605.1257)" style="fill:#FFFFFF;" width="19.461" height="19.46"/>
				
					<rect x="748.093" y="162.428" transform="matrix(-1.836970e-16 1 -1 -1.836970e-16 929.9818 -585.6652)" style="fill:#C7C7C7;" width="19.46" height="19.46"/>
				
					<rect x="748.093" y="181.889" transform="matrix(-1.836970e-16 1 -1 -1.836970e-16 949.4422 -566.2048)" style="fill:#FFFFFF;" width="19.46" height="19.46"/>
				
					<rect x="748.093" y="201.349" transform="matrix(-1.836970e-16 1 -1 -1.836970e-16 968.9026 -546.7443)" style="fill:#C7C7C7;" width="19.461" height="19.46"/>
				
					<rect x="748.093" y="220.809" transform="matrix(-1.836970e-16 1 -1 -1.836970e-16 988.363 -527.2839)" style="fill:#FFFFFF;" width="19.46" height="19.46"/>
				
					<rect x="748.093" y="240.27" transform="matrix(-1.836970e-16 1 -1 -1.836970e-16 1007.8235 -507.8235)" style="fill:#C7C7C7;" width="19.461" height="19.46"/>
				
					<rect x="748.093" y="259.73" transform="matrix(-1.836970e-16 1 -1 -1.836970e-16 1027.2839 -488.363)" style="fill:#FFFFFF;" width="19.46" height="19.46"/>
				
					<rect x="748.093" y="279.191" transform="matrix(-1.836970e-16 1 -1 -1.836970e-16 1046.7444 -468.9026)" style="fill:#C7C7C7;" width="19.461" height="19.46"/>
				
					<rect x="748.093" y="298.651" transform="matrix(-1.836970e-16 1 -1 -1.836970e-16 1066.2048 -449.4422)" style="fill:#FFFFFF;" width="19.46" height="19.46"/>
				
					<rect x="748.093" y="318.112" transform="matrix(-1.836970e-16 1 -1 -1.836970e-16 1085.6653 -429.9817)" style="fill:#C7C7C7;" width="19.461" height="19.46"/>
				
					<rect x="748.093" y="337.572" transform="matrix(-1.836970e-16 1 -1 -1.836970e-16 1105.1257 -410.5212)" style="fill:#FFFFFF;" width="19.46" height="19.46"/>
				
					<rect x="748.093" y="357.033" transform="matrix(-1.836970e-16 1 -1 -1.836970e-16 1124.5862 -391.0607)" style="fill:#C7C7C7;" width="19.461" height="19.46"/>
				
					<rect x="748.093" y="376.493" transform="matrix(-1.836970e-16 1 -1 -1.836970e-16 1144.0466 -371.6003)" style="fill:#FFFFFF;" width="19.46" height="19.46"/>
				
					<rect x="748.093" y="395.953" transform="matrix(-1.836970e-16 1 -1 -1.836970e-16 1163.5071 -352.1399)" style="fill:#C7C7C7;" width="19.461" height="19.46"/>
				
					<rect x="748.093" y="415.414" transform="matrix(-1.836970e-16 1 -1 -1.836970e-16 1182.9675 -332.6795)" style="fill:#FFFFFF;" width="19.46" height="19.46"/>
			</g>
			<g>
				
					<rect x="728.633" y="65.126" transform="matrix(-1.836970e-16 1 -1 -1.836970e-16 813.2191 -663.507)" style="fill:#C7C7C7;" width="19.461" height="19.46"/>
				
					<rect x="728.633" y="84.586" transform="matrix(-1.836970e-16 1 -1 -1.836970e-16 832.6796 -644.0465)" style="fill:#FFFFFF;" width="19.46" height="19.46"/>
				
					<rect x="728.633" y="104.047" transform="matrix(-1.836970e-16 1 -1 -1.836970e-16 852.14 -624.5861)" style="fill:#C7C7C7;" width="19.461" height="19.46"/>
				
					<rect x="728.633" y="123.507" transform="matrix(-1.836970e-16 1 -1 -1.836970e-16 871.6005 -605.1256)" style="fill:#FFFFFF;" width="19.46" height="19.46"/>
				
					<rect x="728.633" y="142.968" transform="matrix(-1.836970e-16 1 -1 -1.836970e-16 891.0609 -585.6652)" style="fill:#C7C7C7;" width="19.461" height="19.46"/>
				
					<rect x="728.633" y="162.428" transform="matrix(-1.836970e-16 1 -1 -1.836970e-16 910.5214 -566.2047)" style="fill:#FFFFFF;" width="19.46" height="19.46"/>
				
					<rect x="728.633" y="181.888" transform="matrix(-1.836970e-16 1 -1 -1.836970e-16 929.9818 -546.7443)" style="fill:#C7C7C7;" width="19.46" height="19.46"/>
				
					<rect x="728.633" y="201.349" transform="matrix(-1.836970e-16 1 -1 -1.836970e-16 949.4422 -527.2839)" style="fill:#FFFFFF;" width="19.461" height="19.46"/>
				
					<rect x="728.633" y="220.809" transform="matrix(-1.836970e-16 1 -1 -1.836970e-16 968.9026 -507.8235)" style="fill:#C7C7C7;" width="19.46" height="19.46"/>
				
					<rect x="728.633" y="240.27" transform="matrix(-1.836970e-16 1 -1 -1.836970e-16 988.363 -488.363)" style="fill:#FFFFFF;" width="19.461" height="19.46"/>
				
					<rect x="728.633" y="259.73" transform="matrix(-1.836970e-16 1 -1 -1.836970e-16 1007.8235 -468.9026)" style="fill:#C7C7C7;" width="19.46" height="19.46"/>
				
					<rect x="728.633" y="279.191" transform="matrix(-1.836970e-16 1 -1 -1.836970e-16 1027.2839 -449.4422)" style="fill:#FFFFFF;" width="19.461" height="19.46"/>
				
					<rect x="728.633" y="298.651" transform="matrix(-1.836970e-16 1 -1 -1.836970e-16 1046.7444 -429.9818)" style="fill:#C7C7C7;" width="19.46" height="19.46"/>
				
					<rect x="728.633" y="318.112" transform="matrix(-1.836970e-16 1 -1 -1.836970e-16 1066.2048 -410.5212)" style="fill:#FFFFFF;" width="19.461" height="19.46"/>
				
					<rect x="728.633" y="337.572" transform="matrix(-1.836970e-16 1 -1 -1.836970e-16 1085.6653 -391.0607)" style="fill:#C7C7C7;" width="19.46" height="19.46"/>
				
					<rect x="728.633" y="357.033" transform="matrix(-1.836970e-16 1 -1 -1.836970e-16 1105.1257 -371.6003)" style="fill:#FFFFFF;" width="19.461" height="19.46"/>
				
					<rect x="728.633" y="376.493" transform="matrix(-1.836970e-16 1 -1 -1.836970e-16 1124.5862 -352.1399)" style="fill:#C7C7C7;" width="19.46" height="19.46"/>
				
					<rect x="728.633" y="395.953" transform="matrix(-1.836970e-16 1 -1 -1.836970e-16 1144.0466 -332.6795)" style="fill:#FFFFFF;" width="19.461" height="19.46"/>
				
					<rect x="728.633" y="415.414" transform="matrix(-1.836970e-16 1 -1 -1.836970e-16 1163.5071 -313.219)" style="fill:#C7C7C7;" width="19.46" height="19.46"/>
			</g>
			<g>
				
					<rect x="709.172" y="65.126" transform="matrix(-1.836970e-16 1 -1 -1.836970e-16 793.7587 -644.0466)" style="fill:#FFFFFF;" width="19.461" height="19.46"/>
				
					<rect x="709.172" y="84.586" transform="matrix(-1.836970e-16 1 -1 -1.836970e-16 813.2191 -624.5861)" style="fill:#C7C7C7;" width="19.46" height="19.46"/>
				
					<rect x="709.172" y="104.047" transform="matrix(-1.836970e-16 1 -1 -1.836970e-16 832.6796 -605.1256)" style="fill:#FFFFFF;" width="19.461" height="19.46"/>
				
					<rect x="709.173" y="123.507" transform="matrix(-1.836970e-16 1 -1 -1.836970e-16 852.14 -585.6652)" style="fill:#C7C7C7;" width="19.46" height="19.46"/>
				
					<rect x="709.172" y="142.968" transform="matrix(-1.836970e-16 1 -1 -1.836970e-16 871.6005 -566.2048)" style="fill:#FFFFFF;" width="19.461" height="19.46"/>
				
					<rect x="709.172" y="162.428" transform="matrix(-1.836970e-16 1 -1 -1.836970e-16 891.0609 -546.7443)" style="fill:#C7C7C7;" width="19.46" height="19.46"/>
				
					<rect x="709.172" y="181.889" transform="matrix(-1.836970e-16 1 -1 -1.836970e-16 910.5214 -527.2839)" style="fill:#FFFFFF;" width="19.46" height="19.46"/>
				
					<rect x="709.172" y="201.349" transform="matrix(-1.836970e-16 1 -1 -1.836970e-16 929.9818 -507.8235)" style="fill:#C7C7C7;" width="19.461" height="19.46"/>
				
					<rect x="709.172" y="220.809" transform="matrix(-1.836970e-16 1 -1 -1.836970e-16 949.4422 -488.3631)" style="fill:#FFFFFF;" width="19.46" height="19.46"/>
				
					<rect x="709.172" y="240.27" transform="matrix(-1.836970e-16 1 -1 -1.836970e-16 968.9026 -468.9026)" style="fill:#C7C7C7;" width="19.461" height="19.46"/>
				
					<rect x="709.172" y="259.73" transform="matrix(-1.836970e-16 1 -1 -1.836970e-16 988.3631 -449.4422)" style="fill:#FFFFFF;" width="19.46" height="19.46"/>
				
					<rect x="709.172" y="279.191" transform="matrix(-1.836970e-16 1 -1 -1.836970e-16 1007.8235 -429.9818)" style="fill:#C7C7C7;" width="19.461" height="19.46"/>
				
					<rect x="709.172" y="298.651" transform="matrix(-1.836970e-16 1 -1 -1.836970e-16 1027.2839 -410.5213)" style="fill:#FFFFFF;" width="19.46" height="19.46"/>
				
					<rect x="709.172" y="318.112" transform="matrix(-1.836970e-16 1 -1 -1.836970e-16 1046.7444 -391.0609)" style="fill:#C7C7C7;" width="19.461" height="19.46"/>
				
					<rect x="709.172" y="337.572" transform="matrix(-1.836970e-16 1 -1 -1.836970e-16 1066.205 -371.6003)" style="fill:#FFFFFF;" width="19.46" height="19.46"/>
				
					<rect x="709.172" y="357.033" transform="matrix(-1.836970e-16 1 -1 -1.836970e-16 1085.6654 -352.1399)" style="fill:#C7C7C7;" width="19.461" height="19.46"/>
				
					<rect x="709.172" y="376.493" transform="matrix(-1.836970e-16 1 -1 -1.836970e-16 1105.1257 -332.6795)" style="fill:#FFFFFF;" width="19.46" height="19.46"/>
				
					<rect x="709.172" y="395.953" transform="matrix(-1.836970e-16 1 -1 -1.836970e-16 1124.5862 -313.2191)" style="fill:#C7C7C7;" width="19.461" height="19.46"/>
				
					<rect x="709.172" y="415.414" transform="matrix(-1.836970e-16 1 -1 -1.836970e-16 1144.0466 -293.7586)" style="fill:#FFFFFF;" width="19.46" height="19.46"/>
			</g>
			<g>
				
					<rect x="689.712" y="65.126" transform="matrix(-1.836970e-16 1 -1 -1.836970e-16 774.2983 -624.5862)" style="fill:#C7C7C7;" width="19.461" height="19.46"/>
				
					<rect x="689.712" y="84.586" transform="matrix(-1.836970e-16 1 -1 -1.836970e-16 793.7587 -605.1257)" style="fill:#FFFFFF;" width="19.46" height="19.46"/>
				
					<rect x="689.712" y="104.047" transform="matrix(-1.836970e-16 1 -1 -1.836970e-16 813.2192 -585.6652)" style="fill:#C7C7C7;" width="19.461" height="19.46"/>
				
					<rect x="689.712" y="123.507" transform="matrix(-1.836970e-16 1 -1 -1.836970e-16 832.6796 -566.2048)" style="fill:#FFFFFF;" width="19.46" height="19.46"/>
				
					<rect x="689.712" y="142.968" transform="matrix(-1.836970e-16 1 -1 -1.836970e-16 852.14 -546.7444)" style="fill:#C7C7C7;" width="19.461" height="19.46"/>
				
					<rect x="689.712" y="162.428" transform="matrix(-1.836970e-16 1 -1 -1.836970e-16 871.6005 -527.2839)" style="fill:#FFFFFF;" width="19.46" height="19.46"/>
				
					<rect x="689.712" y="181.888" transform="matrix(-1.836970e-16 1 -1 -1.836970e-16 891.0609 -507.8235)" style="fill:#C7C7C7;" width="19.46" height="19.46"/>
				
					<rect x="689.712" y="201.349" transform="matrix(-1.836970e-16 1 -1 -1.836970e-16 910.5214 -488.3631)" style="fill:#FFFFFF;" width="19.461" height="19.46"/>
				
					<rect x="689.712" y="220.809" transform="matrix(-1.836970e-16 1 -1 -1.836970e-16 929.9818 -468.9027)" style="fill:#C7C7C7;" width="19.46" height="19.46"/>
				
					<rect x="689.712" y="240.27" transform="matrix(-1.836970e-16 1 -1 -1.836970e-16 949.4423 -449.4422)" style="fill:#FFFFFF;" width="19.461" height="19.46"/>
				
					<rect x="689.712" y="259.73" transform="matrix(-1.836970e-16 1 -1 -1.836970e-16 968.9027 -429.9818)" style="fill:#C7C7C7;" width="19.46" height="19.46"/>
				
					<rect x="689.712" y="279.191" transform="matrix(-1.836970e-16 1 -1 -1.836970e-16 988.3631 -410.5214)" style="fill:#FFFFFF;" width="19.461" height="19.46"/>
				
					<rect x="689.712" y="298.651" transform="matrix(-1.836970e-16 1 -1 -1.836970e-16 1007.8235 -391.0609)" style="fill:#C7C7C7;" width="19.46" height="19.46"/>
				
					<rect x="689.712" y="318.112" transform="matrix(-1.836970e-16 1 -1 -1.836970e-16 1027.2841 -371.6004)" style="fill:#FFFFFF;" width="19.461" height="19.46"/>
				
					<rect x="689.712" y="337.572" transform="matrix(-1.836970e-16 1 -1 -1.836970e-16 1046.7445 -352.1399)" style="fill:#C7C7C7;" width="19.46" height="19.46"/>
				
					<rect x="689.712" y="357.033" transform="matrix(-1.836970e-16 1 -1 -1.836970e-16 1066.205 -332.6795)" style="fill:#FFFFFF;" width="19.461" height="19.46"/>
				
					<rect x="689.712" y="376.493" transform="matrix(-1.836970e-16 1 -1 -1.836970e-16 1085.6654 -313.2191)" style="fill:#C7C7C7;" width="19.46" height="19.46"/>
				
					<rect x="689.712" y="395.953" transform="matrix(-1.836970e-16 1 -1 -1.836970e-16 1105.1257 -293.7587)" style="fill:#FFFFFF;" width="19.461" height="19.46"/>
				
					<rect x="689.712" y="415.414" transform="matrix(-1.836970e-16 1 -1 -1.836970e-16 1124.5862 -274.2982)" style="fill:#C7C7C7;" width="19.46" height="19.46"/>
			</g>
			<g>
				
					<rect x="670.252" y="65.126" transform="matrix(-1.836970e-16 1 -1 -1.836970e-16 754.8378 -605.1257)" style="fill:#FFFFFF;" width="19.461" height="19.46"/>
				
					<rect x="670.252" y="84.586" transform="matrix(-1.836970e-16 1 -1 -1.836970e-16 774.2983 -585.6653)" style="fill:#C7C7C7;" width="19.46" height="19.46"/>
				
					<rect x="670.251" y="104.047" transform="matrix(-1.836970e-16 1 -1 -1.836970e-16 793.7588 -566.2048)" style="fill:#FFFFFF;" width="19.461" height="19.46"/>
				
					<rect x="670.252" y="123.507" transform="matrix(-1.836970e-16 1 -1 -1.836970e-16 813.2192 -546.7444)" style="fill:#C7C7C7;" width="19.46" height="19.46"/>
				
					<rect x="670.251" y="142.968" transform="matrix(-1.836970e-16 1 -1 -1.836970e-16 832.6796 -527.284)" style="fill:#FFFFFF;" width="19.461" height="19.46"/>
				
					<rect x="670.252" y="162.428" transform="matrix(-1.836970e-16 1 -1 -1.836970e-16 852.1401 -507.8235)" style="fill:#C7C7C7;" width="19.46" height="19.46"/>
				
					<rect x="670.252" y="181.889" transform="matrix(-1.836970e-16 1 -1 -1.836970e-16 871.6005 -488.3631)" style="fill:#FFFFFF;" width="19.46" height="19.46"/>
				
					<rect x="670.252" y="201.349" transform="matrix(-1.836970e-16 1 -1 -1.836970e-16 891.0609 -468.9026)" style="fill:#C7C7C7;" width="19.461" height="19.46"/>
				
					<rect x="670.252" y="220.809" transform="matrix(-1.836970e-16 1 -1 -1.836970e-16 910.5214 -449.4422)" style="fill:#FFFFFF;" width="19.46" height="19.46"/>
				
					<rect x="670.251" y="240.27" transform="matrix(-1.836970e-16 1 -1 -1.836970e-16 929.9818 -429.9818)" style="fill:#C7C7C7;" width="19.461" height="19.46"/>
				
					<rect x="670.252" y="259.73" transform="matrix(-1.836970e-16 1 -1 -1.836970e-16 949.4423 -410.5213)" style="fill:#FFFFFF;" width="19.46" height="19.46"/>
				
					<rect x="670.252" y="279.191" transform="matrix(-1.836970e-16 1 -1 -1.836970e-16 968.9026 -391.0609)" style="fill:#C7C7C7;" width="19.461" height="19.46"/>
				
					<rect x="670.252" y="298.651" transform="matrix(-1.836970e-16 1 -1 -1.836970e-16 988.3631 -371.6005)" style="fill:#FFFFFF;" width="19.46" height="19.46"/>
				
					<rect x="670.251" y="318.112" transform="matrix(-1.836970e-16 1 -1 -1.836970e-16 1007.8236 -352.14)" style="fill:#C7C7C7;" width="19.461" height="19.46"/>
				
					<rect x="670.252" y="337.572" transform="matrix(-1.836970e-16 1 -1 -1.836970e-16 1027.2841 -332.6795)" style="fill:#FFFFFF;" width="19.46" height="19.46"/>
				
					<rect x="670.252" y="357.033" transform="matrix(-1.836970e-16 1 -1 -1.836970e-16 1046.7445 -313.219)" style="fill:#C7C7C7;" width="19.461" height="19.46"/>
				
					<rect x="670.252" y="376.493" transform="matrix(-1.836970e-16 1 -1 -1.836970e-16 1066.205 -293.7586)" style="fill:#FFFFFF;" width="19.46" height="19.46"/>
				
					<rect x="670.252" y="395.953" transform="matrix(-1.836970e-16 1 -1 -1.836970e-16 1085.6653 -274.2982)" style="fill:#C7C7C7;" width="19.461" height="19.46"/>
				
					<rect x="670.252" y="415.414" transform="matrix(-1.836970e-16 1 -1 -1.836970e-16 1105.1257 -254.8378)" style="fill:#FFFFFF;" width="19.46" height="19.46"/>
			</g>
			<g>
				
					<rect x="650.791" y="65.126" transform="matrix(-1.836970e-16 1 -1 -1.836970e-16 735.3773 -585.6652)" style="fill:#C7C7C7;" width="19.461" height="19.461"/>
				
					<rect x="650.791" y="84.586" transform="matrix(-1.836970e-16 1 -1 -1.836970e-16 754.8378 -566.2048)" style="fill:#FFFFFF;" width="19.46" height="19.461"/>
				
					<rect x="650.791" y="104.047" transform="matrix(-1.836970e-16 1 -1 -1.836970e-16 774.2983 -546.7443)" style="fill:#C7C7C7;" width="19.461" height="19.461"/>
				
					<rect x="650.791" y="123.507" transform="matrix(-1.836970e-16 1 -1 -1.836970e-16 793.7587 -527.2839)" style="fill:#FFFFFF;" width="19.46" height="19.461"/>
				
					<rect x="650.791" y="142.967" transform="matrix(-1.836970e-16 1 -1 -1.836970e-16 813.2191 -507.8235)" style="fill:#C7C7C7;" width="19.461" height="19.461"/>
				
					<rect x="650.791" y="162.428" transform="matrix(-1.836970e-16 1 -1 -1.836970e-16 832.6796 -488.363)" style="fill:#FFFFFF;" width="19.46" height="19.461"/>
				
					<rect x="650.791" y="181.888" transform="matrix(-1.836970e-16 1 -1 -1.836970e-16 852.14 -468.9026)" style="fill:#C7C7C7;" width="19.46" height="19.461"/>
				
					<rect x="650.791" y="201.349" transform="matrix(-1.836970e-16 1 -1 -1.836970e-16 871.6005 -449.4421)" style="fill:#FFFFFF;" width="19.461" height="19.461"/>
				
					<rect x="650.791" y="220.809" transform="matrix(-1.836970e-16 1 -1 -1.836970e-16 891.0609 -429.9818)" style="fill:#C7C7C7;" width="19.46" height="19.461"/>
				
					<rect x="650.791" y="240.27" transform="matrix(-1.836970e-16 1 -1 -1.836970e-16 910.5213 -410.5213)" style="fill:#FFFFFF;" width="19.461" height="19.461"/>
				
					<rect x="650.791" y="259.73" transform="matrix(-1.836970e-16 1 -1 -1.836970e-16 929.9818 -391.0609)" style="fill:#C7C7C7;" width="19.46" height="19.461"/>
				
					<rect x="650.791" y="279.191" transform="matrix(-1.836970e-16 1 -1 -1.836970e-16 949.4421 -371.6004)" style="fill:#FFFFFF;" width="19.461" height="19.461"/>
				
					<rect x="650.791" y="298.651" transform="matrix(-1.836970e-16 1 -1 -1.836970e-16 968.9026 -352.14)" style="fill:#C7C7C7;" width="19.46" height="19.461"/>
				
					<rect x="650.791" y="318.112" transform="matrix(-1.836970e-16 1 -1 -1.836970e-16 988.3631 -332.6795)" style="fill:#FFFFFF;" width="19.461" height="19.461"/>
				
					<rect x="650.791" y="337.572" transform="matrix(-1.836970e-16 1 -1 -1.836970e-16 1007.8236 -313.219)" style="fill:#C7C7C7;" width="19.46" height="19.461"/>
				
					<rect x="650.791" y="357.032" transform="matrix(-1.836970e-16 1 -1 -1.836970e-16 1027.2841 -293.7585)" style="fill:#FFFFFF;" width="19.461" height="19.461"/>
				
					<rect x="650.791" y="376.493" transform="matrix(-1.836970e-16 1 -1 -1.836970e-16 1046.7444 -274.2981)" style="fill:#C7C7C7;" width="19.46" height="19.461"/>
				
					<rect x="650.791" y="395.953" transform="matrix(-1.836970e-16 1 -1 -1.836970e-16 1066.2048 -254.8377)" style="fill:#FFFFFF;" width="19.461" height="19.461"/>
				
					<rect x="650.791" y="415.414" transform="matrix(-1.836970e-16 1 -1 -1.836970e-16 1085.6653 -235.3773)" style="fill:#C7C7C7;" width="19.46" height="19.461"/>
			</g>
			<g>
				
					<rect x="631.331" y="65.126" transform="matrix(-1.836970e-16 1 -1 -1.836970e-16 715.9168 -566.2047)" style="fill:#FFFFFF;" width="19.461" height="19.46"/>
				
					<rect x="631.331" y="84.586" transform="matrix(-1.836970e-16 1 -1 -1.836970e-16 735.3773 -546.7443)" style="fill:#C7C7C7;" width="19.46" height="19.46"/>
				
					<rect x="631.331" y="104.047" transform="matrix(-1.836970e-16 1 -1 -1.836970e-16 754.8378 -527.2838)" style="fill:#FFFFFF;" width="19.461" height="19.46"/>
				
					<rect x="631.331" y="123.507" transform="matrix(-1.836970e-16 1 -1 -1.836970e-16 774.2982 -507.8234)" style="fill:#C7C7C7;" width="19.46" height="19.46"/>
				
					<rect x="631.331" y="142.968" transform="matrix(-1.836970e-16 1 -1 -1.836970e-16 793.7586 -488.363)" style="fill:#FFFFFF;" width="19.461" height="19.46"/>
				
					<rect x="631.331" y="162.428" transform="matrix(-1.836970e-16 1 -1 -1.836970e-16 813.2191 -468.9025)" style="fill:#C7C7C7;" width="19.46" height="19.46"/>
				
					<rect x="631.331" y="181.889" transform="matrix(-1.836970e-16 1 -1 -1.836970e-16 832.6795 -449.4421)" style="fill:#FFFFFF;" width="19.46" height="19.46"/>
				
					<rect x="631.331" y="201.349" transform="matrix(-1.836970e-16 1 -1 -1.836970e-16 852.14 -429.9816)" style="fill:#C7C7C7;" width="19.461" height="19.46"/>
				
					<rect x="631.331" y="220.809" transform="matrix(-1.836970e-16 1 -1 -1.836970e-16 871.6003 -410.5212)" style="fill:#FFFFFF;" width="19.46" height="19.46"/>
				
					<rect x="631.331" y="240.27" transform="matrix(-1.836970e-16 1 -1 -1.836970e-16 891.0608 -391.0608)" style="fill:#C7C7C7;" width="19.461" height="19.46"/>
				
					<rect x="631.331" y="259.73" transform="matrix(-1.836970e-16 1 -1 -1.836970e-16 910.5212 -371.6003)" style="fill:#FFFFFF;" width="19.46" height="19.46"/>
				
					<rect x="631.331" y="279.191" transform="matrix(-1.836970e-16 1 -1 -1.836970e-16 929.9816 -352.14)" style="fill:#C7C7C7;" width="19.461" height="19.46"/>
				
					<rect x="631.331" y="298.651" transform="matrix(-1.836970e-16 1 -1 -1.836970e-16 949.4421 -332.6795)" style="fill:#FFFFFF;" width="19.46" height="19.46"/>
				
					<rect x="631.331" y="318.112" transform="matrix(-1.836970e-16 1 -1 -1.836970e-16 968.9026 -313.219)" style="fill:#C7C7C7;" width="19.461" height="19.46"/>
				
					<rect x="631.331" y="337.572" transform="matrix(-1.836970e-16 1 -1 -1.836970e-16 988.3631 -293.7585)" style="fill:#FFFFFF;" width="19.46" height="19.46"/>
				
					<rect x="631.331" y="357.033" transform="matrix(-1.836970e-16 1 -1 -1.836970e-16 1007.8235 -274.298)" style="fill:#C7C7C7;" width="19.461" height="19.46"/>
				
					<rect x="631.331" y="376.493" transform="matrix(-1.836970e-16 1 -1 -1.836970e-16 1027.2839 -254.8376)" style="fill:#FFFFFF;" width="19.46" height="19.46"/>
				
					<rect x="631.331" y="395.953" transform="matrix(-1.836970e-16 1 -1 -1.836970e-16 1046.7444 -235.3772)" style="fill:#C7C7C7;" width="19.461" height="19.46"/>
				
					<rect x="631.331" y="415.414" transform="matrix(-1.836970e-16 1 -1 -1.836970e-16 1066.2048 -215.9168)" style="fill:#FFFFFF;" width="19.46" height="19.46"/>
			</g>
			<g>
				
					<rect x="611.87" y="65.126" transform="matrix(-1.836970e-16 1 -1 -1.836970e-16 696.4564 -546.7443)" style="fill:#C7C7C7;" width="19.461" height="19.46"/>
				
					<rect x="611.87" y="84.586" transform="matrix(-1.836970e-16 1 -1 -1.836970e-16 715.9169 -527.2838)" style="fill:#FFFFFF;" width="19.46" height="19.46"/>
				
					<rect x="611.87" y="104.047" transform="matrix(-1.836970e-16 1 -1 -1.836970e-16 735.3773 -507.8233)" style="fill:#C7C7C7;" width="19.461" height="19.46"/>
				
					<rect x="611.87" y="123.507" transform="matrix(-1.836970e-16 1 -1 -1.836970e-16 754.8378 -488.3629)" style="fill:#FFFFFF;" width="19.46" height="19.46"/>
				
					<rect x="611.87" y="142.968" transform="matrix(-1.836970e-16 1 -1 -1.836970e-16 774.2982 -468.9025)" style="fill:#C7C7C7;" width="19.461" height="19.46"/>
				
					<rect x="611.87" y="162.428" transform="matrix(-1.836970e-16 1 -1 -1.836970e-16 793.7587 -449.442)" style="fill:#FFFFFF;" width="19.46" height="19.46"/>
				
					<rect x="611.87" y="181.888" transform="matrix(-1.836970e-16 1 -1 -1.836970e-16 813.2191 -429.9816)" style="fill:#C7C7C7;" width="19.46" height="19.46"/>
				
					<rect x="611.87" y="201.349" transform="matrix(-1.836970e-16 1 -1 -1.836970e-16 832.6795 -410.5212)" style="fill:#FFFFFF;" width="19.461" height="19.46"/>
				
					<rect x="611.87" y="220.809" transform="matrix(-1.836970e-16 1 -1 -1.836970e-16 852.1399 -391.0608)" style="fill:#C7C7C7;" width="19.46" height="19.46"/>
				
					<rect x="611.87" y="240.27" transform="matrix(-1.836970e-16 1 -1 -1.836970e-16 871.6003 -371.6003)" style="fill:#FFFFFF;" width="19.461" height="19.46"/>
				
					<rect x="611.87" y="259.73" transform="matrix(-1.836970e-16 1 -1 -1.836970e-16 891.0608 -352.1399)" style="fill:#C7C7C7;" width="19.46" height="19.46"/>
				
					<rect x="611.87" y="279.191" transform="matrix(-1.836970e-16 1 -1 -1.836970e-16 910.5212 -332.6795)" style="fill:#FFFFFF;" width="19.461" height="19.46"/>
				
					<rect x="611.87" y="298.651" transform="matrix(-1.836970e-16 1 -1 -1.836970e-16 929.9816 -313.219)" style="fill:#C7C7C7;" width="19.46" height="19.46"/>
				
					<rect x="611.87" y="318.112" transform="matrix(-1.836970e-16 1 -1 -1.836970e-16 949.4421 -293.7585)" style="fill:#FFFFFF;" width="19.461" height="19.46"/>
				
					<rect x="611.87" y="337.572" transform="matrix(-1.836970e-16 1 -1 -1.836970e-16 968.9026 -274.298)" style="fill:#C7C7C7;" width="19.46" height="19.46"/>
				
					<rect x="611.87" y="357.033" transform="matrix(-1.836970e-16 1 -1 -1.836970e-16 988.3631 -254.8376)" style="fill:#FFFFFF;" width="19.461" height="19.46"/>
				
					<rect x="611.87" y="376.493" transform="matrix(-1.836970e-16 1 -1 -1.836970e-16 1007.8235 -235.3772)" style="fill:#C7C7C7;" width="19.46" height="19.46"/>
				
					<rect x="611.87" y="395.953" transform="matrix(-1.836970e-16 1 -1 -1.836970e-16 1027.2839 -215.9168)" style="fill:#FFFFFF;" width="19.461" height="19.46"/>
				
					<rect x="611.87" y="415.414" transform="matrix(-1.836970e-16 1 -1 -1.836970e-16 1046.7444 -196.4563)" style="fill:#C7C7C7;" width="19.46" height="19.46"/>
			</g>
			<g>
				
					<rect x="592.41" y="65.126" transform="matrix(-1.836970e-16 1 -1 -1.836970e-16 676.9959 -527.2838)" style="fill:#FFFFFF;" width="19.461" height="19.46"/>
				
					<rect x="592.41" y="84.586" transform="matrix(-1.836970e-16 1 -1 -1.836970e-16 696.4564 -507.8234)" style="fill:#C7C7C7;" width="19.46" height="19.46"/>
				
					<rect x="592.41" y="104.047" transform="matrix(-1.836970e-16 1 -1 -1.836970e-16 715.9169 -488.3629)" style="fill:#FFFFFF;" width="19.461" height="19.46"/>
				
					<rect x="592.41" y="123.507" transform="matrix(-1.836970e-16 1 -1 -1.836970e-16 735.3773 -468.9025)" style="fill:#C7C7C7;" width="19.46" height="19.46"/>
				
					<rect x="592.41" y="142.968" transform="matrix(-1.836970e-16 1 -1 -1.836970e-16 754.8377 -449.4421)" style="fill:#FFFFFF;" width="19.461" height="19.46"/>
				
					<rect x="592.41" y="162.428" transform="matrix(-1.836970e-16 1 -1 -1.836970e-16 774.2982 -429.9816)" style="fill:#C7C7C7;" width="19.46" height="19.46"/>
				
					<rect x="592.41" y="181.889" transform="matrix(-1.836970e-16 1 -1 -1.836970e-16 793.7586 -410.5212)" style="fill:#FFFFFF;" width="19.46" height="19.46"/>
				
					<rect x="592.41" y="201.349" transform="matrix(-1.836970e-16 1 -1 -1.836970e-16 813.2191 -391.0607)" style="fill:#C7C7C7;" width="19.461" height="19.46"/>
				
					<rect x="592.41" y="220.809" transform="matrix(-1.836970e-16 1 -1 -1.836970e-16 832.6794 -371.6003)" style="fill:#FFFFFF;" width="19.46" height="19.46"/>
				
					<rect x="592.41" y="240.27" transform="matrix(-1.836970e-16 1 -1 -1.836970e-16 852.1399 -352.1399)" style="fill:#C7C7C7;" width="19.461" height="19.46"/>
				
					<rect x="592.41" y="259.73" transform="matrix(-1.836970e-16 1 -1 -1.836970e-16 871.6003 -332.6794)" style="fill:#FFFFFF;" width="19.46" height="19.46"/>
				
					<rect x="592.41" y="279.191" transform="matrix(-1.836970e-16 1 -1 -1.836970e-16 891.0607 -313.2191)" style="fill:#C7C7C7;" width="19.461" height="19.46"/>
				
					<rect x="592.41" y="298.651" transform="matrix(-1.836970e-16 1 -1 -1.836970e-16 910.5212 -293.7586)" style="fill:#FFFFFF;" width="19.46" height="19.46"/>
				
					<rect x="592.41" y="318.112" transform="matrix(-1.836970e-16 1 -1 -1.836970e-16 929.9817 -274.2981)" style="fill:#C7C7C7;" width="19.461" height="19.46"/>
				
					<rect x="592.41" y="337.572" transform="matrix(-1.836970e-16 1 -1 -1.836970e-16 949.4422 -254.8376)" style="fill:#FFFFFF;" width="19.46" height="19.46"/>
				
					<rect x="592.41" y="357.033" transform="matrix(-1.836970e-16 1 -1 -1.836970e-16 968.9026 -235.3771)" style="fill:#C7C7C7;" width="19.461" height="19.46"/>
				
					<rect x="592.41" y="376.493" transform="matrix(-1.836970e-16 1 -1 -1.836970e-16 988.363 -215.9167)" style="fill:#FFFFFF;" width="19.46" height="19.46"/>
				
					<rect x="592.41" y="395.953" transform="matrix(-1.836970e-16 1 -1 -1.836970e-16 1007.8234 -196.4563)" style="fill:#C7C7C7;" width="19.461" height="19.46"/>
				
					<rect x="592.41" y="415.414" transform="matrix(-1.836970e-16 1 -1 -1.836970e-16 1027.2839 -176.9959)" style="fill:#FFFFFF;" width="19.46" height="19.46"/>
			</g>
			<g>
				
					<rect x="572.949" y="65.126" transform="matrix(-1.836970e-16 1 -1 -1.836970e-16 657.5355 -507.8234)" style="fill:#C7C7C7;" width="19.461" height="19.46"/>
				
					<rect x="572.949" y="84.586" transform="matrix(-1.836970e-16 1 -1 -1.836970e-16 676.996 -488.3629)" style="fill:#FFFFFF;" width="19.46" height="19.46"/>
				
					<rect x="572.949" y="104.047" transform="matrix(-1.836970e-16 1 -1 -1.836970e-16 696.4564 -468.9024)" style="fill:#C7C7C7;" width="19.461" height="19.46"/>
				
					<rect x="572.949" y="123.507" transform="matrix(-1.836970e-16 1 -1 -1.836970e-16 715.9169 -449.442)" style="fill:#FFFFFF;" width="19.46" height="19.46"/>
				
					<rect x="572.949" y="142.968" transform="matrix(-1.836970e-16 1 -1 -1.836970e-16 735.3773 -429.9817)" style="fill:#C7C7C7;" width="19.461" height="19.46"/>
				
					<rect x="572.949" y="162.428" transform="matrix(-1.836970e-16 1 -1 -1.836970e-16 754.8378 -410.5211)" style="fill:#FFFFFF;" width="19.46" height="19.46"/>
				
					<rect x="572.949" y="181.888" transform="matrix(-1.836970e-16 1 -1 -1.836970e-16 774.2982 -391.0608)" style="fill:#C7C7C7;" width="19.46" height="19.46"/>
				
					<rect x="572.949" y="201.349" transform="matrix(-1.836970e-16 1 -1 -1.836970e-16 793.7586 -371.6003)" style="fill:#FFFFFF;" width="19.461" height="19.46"/>
				
					<rect x="572.949" y="220.809" transform="matrix(-1.836970e-16 1 -1 -1.836970e-16 813.219 -352.1399)" style="fill:#C7C7C7;" width="19.46" height="19.46"/>
				
					<rect x="572.949" y="240.27" transform="matrix(-1.836970e-16 1 -1 -1.836970e-16 832.6794 -332.6794)" style="fill:#FFFFFF;" width="19.461" height="19.46"/>
				
					<rect x="572.949" y="259.73" transform="matrix(-1.836970e-16 1 -1 -1.836970e-16 852.1399 -313.219)" style="fill:#C7C7C7;" width="19.46" height="19.46"/>
				
					<rect x="572.949" y="279.191" transform="matrix(-1.836970e-16 1 -1 -1.836970e-16 871.6003 -293.7586)" style="fill:#FFFFFF;" width="19.461" height="19.46"/>
				
					<rect x="572.949" y="298.651" transform="matrix(-1.836970e-16 1 -1 -1.836970e-16 891.0607 -274.2982)" style="fill:#C7C7C7;" width="19.46" height="19.46"/>
				
					<rect x="572.949" y="318.112" transform="matrix(-1.836970e-16 1 -1 -1.836970e-16 910.5212 -254.8376)" style="fill:#FFFFFF;" width="19.461" height="19.46"/>
				
					<rect x="572.949" y="337.572" transform="matrix(-1.836970e-16 1 -1 -1.836970e-16 929.9818 -235.3772)" style="fill:#C7C7C7;" width="19.46" height="19.46"/>
				
					<rect x="572.949" y="357.033" transform="matrix(-1.836970e-16 1 -1 -1.836970e-16 949.4422 -215.9167)" style="fill:#FFFFFF;" width="19.461" height="19.46"/>
				
					<rect x="572.949" y="376.493" transform="matrix(-1.836970e-16 1 -1 -1.836970e-16 968.9026 -196.4563)" style="fill:#C7C7C7;" width="19.46" height="19.46"/>
				
					<rect x="572.949" y="395.953" transform="matrix(-1.836970e-16 1 -1 -1.836970e-16 988.363 -176.9959)" style="fill:#FFFFFF;" width="19.461" height="19.46"/>
				
					<rect x="572.949" y="415.414" transform="matrix(-1.836970e-16 1 -1 -1.836970e-16 1007.8234 -157.5354)" style="fill:#C7C7C7;" width="19.46" height="19.46"/>
			</g>
			<g>
				
					<rect x="553.489" y="65.126" transform="matrix(-1.836970e-16 1 -1 -1.836970e-16 638.0751 -488.363)" style="fill:#FFFFFF;" width="19.461" height="19.46"/>
				
					<rect x="553.489" y="84.586" transform="matrix(-1.836970e-16 1 -1 -1.836970e-16 657.5355 -468.9026)" style="fill:#C7C7C7;" width="19.46" height="19.46"/>
				
					<rect x="553.489" y="104.047" transform="matrix(-1.836970e-16 1 -1 -1.836970e-16 676.996 -449.442)" style="fill:#FFFFFF;" width="19.461" height="19.46"/>
				
					<rect x="553.489" y="123.507" transform="matrix(-1.836970e-16 1 -1 -1.836970e-16 696.4564 -429.9817)" style="fill:#C7C7C7;" width="19.46" height="19.46"/>
				
					<rect x="553.489" y="142.968" transform="matrix(-1.836970e-16 1 -1 -1.836970e-16 715.9169 -410.5212)" style="fill:#FFFFFF;" width="19.461" height="19.46"/>
				
					<rect x="553.489" y="162.428" transform="matrix(-1.836970e-16 1 -1 -1.836970e-16 735.3773 -391.0608)" style="fill:#C7C7C7;" width="19.46" height="19.46"/>
				
					<rect x="553.489" y="181.889" transform="matrix(-1.836970e-16 1 -1 -1.836970e-16 754.8378 -371.6003)" style="fill:#FFFFFF;" width="19.46" height="19.46"/>
				
					<rect x="553.489" y="201.349" transform="matrix(-1.836970e-16 1 -1 -1.836970e-16 774.2982 -352.1399)" style="fill:#C7C7C7;" width="19.461" height="19.46"/>
				
					<rect x="553.489" y="220.809" transform="matrix(-1.836970e-16 1 -1 -1.836970e-16 793.7586 -332.6795)" style="fill:#FFFFFF;" width="19.46" height="19.46"/>
				
					<rect x="553.489" y="240.27" transform="matrix(-1.836970e-16 1 -1 -1.836970e-16 813.2191 -313.2191)" style="fill:#C7C7C7;" width="19.461" height="19.46"/>
				
					<rect x="553.489" y="259.73" transform="matrix(-1.836970e-16 1 -1 -1.836970e-16 832.6795 -293.7586)" style="fill:#FFFFFF;" width="19.46" height="19.46"/>
				
					<rect x="553.489" y="279.191" transform="matrix(-1.836970e-16 1 -1 -1.836970e-16 852.1399 -274.2982)" style="fill:#C7C7C7;" width="19.461" height="19.46"/>
				
					<rect x="553.489" y="298.651" transform="matrix(-1.836970e-16 1 -1 -1.836970e-16 871.6003 -254.8378)" style="fill:#FFFFFF;" width="19.46" height="19.46"/>
				
					<rect x="553.489" y="318.112" transform="matrix(-1.836970e-16 1 -1 -1.836970e-16 891.0609 -235.3772)" style="fill:#C7C7C7;" width="19.461" height="19.46"/>
				
					<rect x="553.489" y="337.572" transform="matrix(-1.836970e-16 1 -1 -1.836970e-16 910.5214 -215.9167)" style="fill:#FFFFFF;" width="19.46" height="19.46"/>
				
					<rect x="553.489" y="357.033" transform="matrix(-1.836970e-16 1 -1 -1.836970e-16 929.9818 -196.4563)" style="fill:#C7C7C7;" width="19.461" height="19.46"/>
				
					<rect x="553.489" y="376.493" transform="matrix(-1.836970e-16 1 -1 -1.836970e-16 949.4422 -176.9959)" style="fill:#FFFFFF;" width="19.46" height="19.46"/>
				
					<rect x="553.489" y="395.953" transform="matrix(-1.836970e-16 1 -1 -1.836970e-16 968.9026 -157.5355)" style="fill:#C7C7C7;" width="19.461" height="19.46"/>
				
					<rect x="553.489" y="415.414" transform="matrix(-1.836970e-16 1 -1 -1.836970e-16 988.363 -138.075)" style="fill:#FFFFFF;" width="19.46" height="19.46"/>
			</g>
			<g>
				
					<rect x="534.028" y="65.126" transform="matrix(-1.836970e-16 1 -1 -1.836970e-16 618.6147 -468.9026)" style="fill:#C7C7C7;" width="19.461" height="19.46"/>
				
					<rect x="534.029" y="84.586" transform="matrix(-1.836970e-16 1 -1 -1.836970e-16 638.0752 -449.4422)" style="fill:#FFFFFF;" width="19.46" height="19.46"/>
				
					<rect x="534.028" y="104.047" transform="matrix(-1.836970e-16 1 -1 -1.836970e-16 657.5357 -429.9817)" style="fill:#C7C7C7;" width="19.461" height="19.46"/>
				
					<rect x="534.029" y="123.507" transform="matrix(-1.836970e-16 1 -1 -1.836970e-16 676.9961 -410.5213)" style="fill:#FFFFFF;" width="19.46" height="19.46"/>
				
					<rect x="534.028" y="142.968" transform="matrix(-1.836970e-16 1 -1 -1.836970e-16 696.4565 -391.0609)" style="fill:#C7C7C7;" width="19.461" height="19.46"/>
				
					<rect x="534.029" y="162.428" transform="matrix(-1.836970e-16 1 -1 -1.836970e-16 715.917 -371.6004)" style="fill:#FFFFFF;" width="19.46" height="19.46"/>
				
					<rect x="534.029" y="181.889" transform="matrix(-1.836970e-16 1 -1 -1.836970e-16 735.3774 -352.14)" style="fill:#C7C7C7;" width="19.46" height="19.46"/>
				
					<rect x="534.028" y="201.349" transform="matrix(-1.836970e-16 1 -1 -1.836970e-16 754.8378 -332.6795)" style="fill:#FFFFFF;" width="19.461" height="19.46"/>
				
					<rect x="534.029" y="220.809" transform="matrix(-1.836970e-16 1 -1 -1.836970e-16 774.2982 -313.2191)" style="fill:#C7C7C7;" width="19.46" height="19.46"/>
				
					<rect x="534.028" y="240.27" transform="matrix(-1.836970e-16 1 -1 -1.836970e-16 793.7587 -293.7587)" style="fill:#FFFFFF;" width="19.461" height="19.46"/>
				
					<rect x="534.029" y="259.73" transform="matrix(-1.836970e-16 1 -1 -1.836970e-16 813.2191 -274.2982)" style="fill:#C7C7C7;" width="19.46" height="19.46"/>
				
					<rect x="534.028" y="279.191" transform="matrix(-1.836970e-16 1 -1 -1.836970e-16 832.6796 -254.8378)" style="fill:#FFFFFF;" width="19.461" height="19.46"/>
				
					<rect x="534.029" y="298.651" transform="matrix(-1.836970e-16 1 -1 -1.836970e-16 852.14 -235.3774)" style="fill:#C7C7C7;" width="19.46" height="19.46"/>
				
					<rect x="534.028" y="318.112" transform="matrix(-1.836970e-16 1 -1 -1.836970e-16 871.6005 -215.9169)" style="fill:#FFFFFF;" width="19.461" height="19.46"/>
				
					<rect x="534.029" y="337.572" transform="matrix(-1.836970e-16 1 -1 -1.836970e-16 891.061 -196.4564)" style="fill:#C7C7C7;" width="19.46" height="19.46"/>
				
					<rect x="534.028" y="357.033" transform="matrix(-1.836970e-16 1 -1 -1.836970e-16 910.5214 -176.9959)" style="fill:#FFFFFF;" width="19.461" height="19.46"/>
				
					<rect x="534.029" y="376.493" transform="matrix(-1.836970e-16 1 -1 -1.836970e-16 929.9818 -157.5355)" style="fill:#C7C7C7;" width="19.46" height="19.46"/>
				
					<rect x="534.028" y="395.953" transform="matrix(-1.836970e-16 1 -1 -1.836970e-16 949.4423 -138.0751)" style="fill:#FFFFFF;" width="19.461" height="19.46"/>
				
					<rect x="534.029" y="415.414" transform="matrix(-1.836970e-16 1 -1 -1.836970e-16 968.9027 -118.6147)" style="fill:#C7C7C7;" width="19.46" height="19.46"/>
			</g>
			<g>
				
					<rect x="514.568" y="65.126" transform="matrix(-1.836970e-16 1 -1 -1.836970e-16 599.1543 -449.4422)" style="fill:#FFFFFF;" width="19.461" height="19.46"/>
				
					<rect x="514.568" y="84.586" transform="matrix(-1.836970e-16 1 -1 -1.836970e-16 618.6147 -429.9818)" style="fill:#C7C7C7;" width="19.46" height="19.46"/>
				
					<rect x="514.568" y="104.047" transform="matrix(-1.836970e-16 1 -1 -1.836970e-16 638.0753 -410.5212)" style="fill:#FFFFFF;" width="19.461" height="19.46"/>
				
					<rect x="514.568" y="123.507" transform="matrix(-1.836970e-16 1 -1 -1.836970e-16 657.5356 -391.0609)" style="fill:#C7C7C7;" width="19.46" height="19.46"/>
				
					<rect x="514.568" y="142.968" transform="matrix(-1.836970e-16 1 -1 -1.836970e-16 676.996 -371.6004)" style="fill:#FFFFFF;" width="19.461" height="19.46"/>
				
					<rect x="514.568" y="162.428" transform="matrix(-1.836970e-16 1 -1 -1.836970e-16 696.4565 -352.14)" style="fill:#C7C7C7;" width="19.46" height="19.46"/>
				
					<rect x="514.568" y="181.888" transform="matrix(-1.836970e-16 1 -1 -1.836970e-16 715.9169 -332.6795)" style="fill:#FFFFFF;" width="19.46" height="19.46"/>
				
					<rect x="514.568" y="201.349" transform="matrix(-1.836970e-16 1 -1 -1.836970e-16 735.3774 -313.2191)" style="fill:#C7C7C7;" width="19.461" height="19.46"/>
				
					<rect x="514.568" y="220.809" transform="matrix(-1.836970e-16 1 -1 -1.836970e-16 754.8378 -293.7587)" style="fill:#FFFFFF;" width="19.46" height="19.46"/>
				
					<rect x="514.568" y="240.27" transform="matrix(-1.836970e-16 1 -1 -1.836970e-16 774.2982 -274.2982)" style="fill:#C7C7C7;" width="19.461" height="19.46"/>
				
					<rect x="514.568" y="259.73" transform="matrix(-1.836970e-16 1 -1 -1.836970e-16 793.7587 -254.8378)" style="fill:#FFFFFF;" width="19.46" height="19.46"/>
				
					<rect x="514.568" y="279.191" transform="matrix(-1.836970e-16 1 -1 -1.836970e-16 813.2191 -235.3774)" style="fill:#C7C7C7;" width="19.461" height="19.46"/>
				
					<rect x="514.568" y="298.651" transform="matrix(-1.836970e-16 1 -1 -1.836970e-16 832.6796 -215.9169)" style="fill:#FFFFFF;" width="19.46" height="19.46"/>
				
					<rect x="514.568" y="318.112" transform="matrix(-1.836970e-16 1 -1 -1.836970e-16 852.14 -196.4564)" style="fill:#C7C7C7;" width="19.461" height="19.46"/>
				
					<rect x="514.568" y="337.572" transform="matrix(-1.836970e-16 1 -1 -1.836970e-16 871.6005 -176.9959)" style="fill:#FFFFFF;" width="19.46" height="19.46"/>
				
					<rect x="514.568" y="357.033" transform="matrix(-1.836970e-16 1 -1 -1.836970e-16 891.061 -157.5355)" style="fill:#C7C7C7;" width="19.461" height="19.46"/>
				
					<rect x="514.568" y="376.493" transform="matrix(-1.836970e-16 1 -1 -1.836970e-16 910.5214 -138.0751)" style="fill:#FFFFFF;" width="19.46" height="19.46"/>
				
					<rect x="514.568" y="395.953" transform="matrix(-1.836970e-16 1 -1 -1.836970e-16 929.9818 -118.6147)" style="fill:#C7C7C7;" width="19.461" height="19.46"/>
				
					<rect x="514.568" y="415.414" transform="matrix(-1.836970e-16 1 -1 -1.836970e-16 949.4423 -99.1542)" style="fill:#FFFFFF;" width="19.46" height="19.46"/>
			</g>
			<g>
				
					<rect x="495.108" y="65.126" transform="matrix(-1.836970e-16 1 -1 -1.836970e-16 579.6938 -429.9818)" style="fill:#C7C7C7;" width="19.461" height="19.46"/>
				
					<rect x="495.108" y="84.586" transform="matrix(-1.836970e-16 1 -1 -1.836970e-16 599.1543 -410.5213)" style="fill:#FFFFFF;" width="19.46" height="19.46"/>
				
					<rect x="495.107" y="104.047" transform="matrix(-1.836970e-16 1 -1 -1.836970e-16 618.6148 -391.0608)" style="fill:#C7C7C7;" width="19.461" height="19.46"/>
				
					<rect x="495.108" y="123.507" transform="matrix(-1.836970e-16 1 -1 -1.836970e-16 638.0752 -371.6004)" style="fill:#FFFFFF;" width="19.46" height="19.46"/>
				
					<rect x="495.107" y="142.968" transform="matrix(-1.836970e-16 1 -1 -1.836970e-16 657.5356 -352.14)" style="fill:#C7C7C7;" width="19.461" height="19.46"/>
				
					<rect x="495.108" y="162.428" transform="matrix(-1.836970e-16 1 -1 -1.836970e-16 676.9961 -332.6795)" style="fill:#FFFFFF;" width="19.46" height="19.46"/>
				
					<rect x="495.108" y="181.889" transform="matrix(-1.836970e-16 1 -1 -1.836970e-16 696.4565 -313.2191)" style="fill:#C7C7C7;" width="19.46" height="19.46"/>
				
					<rect x="495.108" y="201.349" transform="matrix(-1.836970e-16 1 -1 -1.836970e-16 715.9169 -293.7586)" style="fill:#FFFFFF;" width="19.461" height="19.46"/>
				
					<rect x="495.108" y="220.809" transform="matrix(-1.836970e-16 1 -1 -1.836970e-16 735.3773 -274.2982)" style="fill:#C7C7C7;" width="19.46" height="19.46"/>
				
					<rect x="495.107" y="240.27" transform="matrix(-1.836970e-16 1 -1 -1.836970e-16 754.8378 -254.8378)" style="fill:#FFFFFF;" width="19.461" height="19.46"/>
				
					<rect x="495.108" y="259.73" transform="matrix(-1.836970e-16 1 -1 -1.836970e-16 774.2982 -235.3773)" style="fill:#C7C7C7;" width="19.46" height="19.46"/>
				
					<rect x="495.108" y="279.191" transform="matrix(-1.836970e-16 1 -1 -1.836970e-16 793.7587 -215.9169)" style="fill:#FFFFFF;" width="19.461" height="19.46"/>
				
					<rect x="495.108" y="298.651" transform="matrix(-1.836970e-16 1 -1 -1.836970e-16 813.2191 -196.4565)" style="fill:#C7C7C7;" width="19.46" height="19.46"/>
				
					<rect x="495.107" y="318.112" transform="matrix(-1.836970e-16 1 -1 -1.836970e-16 832.6796 -176.996)" style="fill:#FFFFFF;" width="19.461" height="19.46"/>
				
					<rect x="495.108" y="337.572" transform="matrix(-1.836970e-16 1 -1 -1.836970e-16 852.1401 -157.5355)" style="fill:#C7C7C7;" width="19.46" height="19.46"/>
				
					<rect x="495.108" y="357.033" transform="matrix(-1.836970e-16 1 -1 -1.836970e-16 871.6005 -138.075)" style="fill:#FFFFFF;" width="19.461" height="19.46"/>
				
					<rect x="495.108" y="376.493" transform="matrix(-1.836970e-16 1 -1 -1.836970e-16 891.0609 -118.6146)" style="fill:#C7C7C7;" width="19.46" height="19.46"/>
				
					<rect x="495.108" y="395.953" transform="matrix(-1.836970e-16 1 -1 -1.836970e-16 910.5214 -99.1542)" style="fill:#FFFFFF;" width="19.461" height="19.46"/>
				
					<rect x="495.108" y="415.414" transform="matrix(-1.836970e-16 1 -1 -1.836970e-16 929.9818 -79.6938)" style="fill:#C7C7C7;" width="19.46" height="19.46"/>
			</g>
		</g>
	</g>
</g>
<g id="TEXTS">
	<g>
		
			<text transform="matrix(1 0 0 1 32.4638 164.2402)" style="fill:#28393B; font-family:'Raleway-ExtraBold'; font-size:39.2253px;">Architecture Design</text>
	</g>
	<g>
		<text transform="matrix(1 0 0 1 32.4647 203.685)" style="fill:#E6A033; font-family:'Raleway-SemiBold'; font-size:30.9875px;">Best Simple Visual Art</text>
	</g>
	<rect x="32.465" y="260.094" style="fill:none;" width="373.516" height="60.745"/>
	<text transform="matrix(1 0 0 1 32.4647 269.8764)"><tspan x="0" y="0" style="fill:#28393B; font-family:'Raleway-Regular'; font-size:13.4014px;">Lorem ipsum dolor sit amet, consectetuer adipiscing elit, </tspan><tspan x="0" y="20.102" style="fill:#28393B; font-family:'Raleway-Regular'; font-size:13.4014px;">sed diam nonummy nibh euismod tincidunt ut laoreet </tspan><tspan x="0" y="40.204" style="fill:#28393B; font-family:'Raleway-Regular'; font-size:13.4014px;">dolore magna aliquam erat volutpat.  </tspan></text>
	<g>
		<text transform="matrix(1 0 0 1 226.5321 463.7104)" style="fill:#28393B; font-family:'Raleway-Bold'; font-size:14.1882px;">Architecture</text>
	</g>
	<g>
		<text transform="matrix(1 0 0 1 66.6395 463.7104)" style="fill:#28393B; font-family:'Raleway-Bold'; font-size:14.1882px;">@Architecture</text>
	</g>
	<g>
		<g>
			
				<text transform="matrix(1 0 0 1 119.8681 380.4438)" style="fill:#FFFFFF; font-family:'Raleway-ExtraBold'; font-size:32.0401px;">20%</text>
			
				<text transform="matrix(1 0 0 1 55.2182 380.4457)" style="fill:#FFFFFF; font-family:'Raleway-ExtraBold'; font-size:22.3036px;">Up to               OFF</text>
		</g>
	</g>
	<g>
		<text transform="matrix(1 0 0 1 814.6884 469.392)" style="fill:#FFFFFF; font-family:'Raleway-Bold'; font-size:16.8425px;">www.architecture.com</text>
	</g>
</g>
</svg>
