<?xml version="1.0" encoding="utf-8"?>
<!-- Generator: Adobe Illustrator 25.2.0, SVG Export Plug-In . SVG Version: 6.00 Build 0)  -->
<svg version="1.1" id="Layer_1" xmlns="http://www.w3.org/2000/svg" xmlns:xlink="http://www.w3.org/1999/xlink" x="0px" y="0px"
	 viewBox="0 0 2000 2000" style="enable-background:new 0 0 2000 2000;" xml:space="preserve">
<style type="text/css">
	.st0{fill:#AAAEB1;}
	.st1{display:none;fill:#FFFFFF;stroke:#000000;stroke-miterlimit:10;}
	.st2{fill:#FFFFFF;}
	.st3{fill:#DDAE87;}
	.st4{fill:#CAAC90;}
	.st5{fill:#A8ACAF;}
</style>
<rect y="0" class="st0" width="2000" height="2000"/>
<g>
	<g>
		<path class="st2" d="M445.85,1325.78c-0.89-0.88-1.32-2-1.32-3.36v-133.96c0-1.49,0.44-2.65,1.32-3.46c0.88-0.81,2-1.22,3.36-1.22
			h27.28c9.77,0,17.68,3.23,23.72,9.67c6.04,6.45,9.06,14.56,9.06,24.33v74.51c0,6.52-1.36,12.42-4.07,17.71
			c-2.72,5.29-6.58,9.47-11.6,12.52c-5.02,3.05-10.72,4.58-17.1,4.58h-27.28C447.85,1327.11,446.74,1326.67,445.85,1325.78z
			 M476.49,1318.15c6.92,0,12.55-2.44,16.9-7.33c4.34-4.89,6.51-11.06,6.51-18.53v-74.51c0-7.33-2.13-13.33-6.41-18.02
			c-4.27-4.68-9.94-7.02-17-7.02H454.1v125.41H476.49z"/>
		<path class="st2" d="M567.19,1322.63c-4.96-2.98-8.83-7.13-11.6-12.42c-2.78-5.29-4.17-11.2-4.17-17.71v-74.1
			c0-6.51,1.39-12.42,4.17-17.71c2.78-5.29,6.65-9.43,11.6-12.42c4.95-2.98,10.62-4.48,17-4.48h20.15c1.09,0,1.63,0.54,1.63,1.63
			v5.5c0,1.22-0.54,1.83-1.63,1.83h-20.15c-6.92,0-12.52,2.41-16.8,7.23c-4.27,4.82-6.41,10.96-6.41,18.42v31.56h38.68
			c1.22,0,1.83,0.54,1.83,1.63v5.5c0,1.09-0.61,1.63-1.83,1.63h-38.68v33.8c0,7.46,2.14,13.61,6.41,18.42
			c4.27,4.82,9.87,7.23,16.8,7.23h20.15c1.09,0,1.63,0.61,1.63,1.83v5.5c0,1.09-0.54,1.63-1.63,1.63h-20.15
			C577.81,1327.11,572.14,1325.61,567.19,1322.63z"/>
		<path class="st2" d="M651.98,1318.45c-6.11-6.72-9.3-15.57-9.57-26.57c0-1.09,0.61-1.63,1.83-1.63h6.11
			c1.09,0,1.63,0.54,1.63,1.63c0.27,8.82,2.47,15.64,6.62,20.46c4.14,4.82,9.87,7.23,17.2,7.23c7.6,0,13.44-2.07,17.51-6.21
			c4.07-4.14,6.11-9.87,6.11-17.2c0-5.56-1.22-10.59-3.67-15.06c-2.44-4.48-5.39-8.38-8.86-11.71c-3.46-3.32-8.32-7.5-14.56-12.52
			c-6.38-5.02-11.47-9.36-15.27-13.03c-3.8-3.66-7.02-7.97-9.67-12.93c-2.65-4.95-3.97-10.62-3.97-17c0-9.5,2.95-17.13,8.86-22.9
			c5.9-5.77,13.67-8.65,23.31-8.65c9.09,0,16.59,3.29,22.5,9.87c5.9,6.58,8.99,15.3,9.26,26.16c0,1.09-0.54,1.63-1.63,1.63h-6.11
			c-1.22,0-1.83-0.54-1.83-1.63c-0.27-8.96-2.34-15.71-6.21-20.26c-3.87-4.55-9.2-6.82-15.98-6.82c-7.06,0-12.59,1.97-16.59,5.9
			c-4.01,3.94-6.01,9.5-6.01,16.69c0,5.02,1.15,9.6,3.46,13.74c2.31,4.14,5.16,7.81,8.55,10.99c3.39,3.19,8.01,7.09,13.84,11.71
			c6.65,5.16,11.94,9.67,15.88,13.54c3.93,3.87,7.29,8.52,10.08,13.95c2.78,5.43,4.18,11.54,4.18,18.32c0,9.5-3.02,17.27-9.06,23.31
			c-6.04,6.04-14.08,9.06-24.12,9.06C666.03,1328.53,658.09,1325.17,651.98,1318.45z"/>
		<path class="st2" d="M753.98,1184.19h6.11c1.22,0,1.83,0.54,1.83,1.63v139.25c0,1.09-0.61,1.63-1.83,1.63h-6.11
			c-1.09,0-1.63-0.54-1.63-1.63v-139.25C752.35,1184.73,752.89,1184.19,753.98,1184.19z"/>
		<path class="st2" d="M824.62,1323.95c-5.16-3.05-9.2-7.29-12.11-12.72c-2.92-5.43-4.38-11.6-4.38-18.53v-73.29
			c0-10.99,3.12-19.92,9.36-26.77c6.24-6.85,14.32-10.28,24.23-10.28c9.5,0,17.34,3.19,23.51,9.57c6.17,6.38,9.4,14.52,9.67,24.43
			c0,1.09-0.54,1.63-1.63,1.63h-6.11c-1.09,0-1.63-0.54-1.63-1.63c-0.41-7.46-2.78-13.5-7.12-18.12c-4.35-4.61-9.91-6.92-16.69-6.92
			c-7.2,0-13,2.54-17.41,7.64c-4.41,5.09-6.61,11.98-6.61,20.66v73.09c0,8.01,2.3,14.49,6.92,19.44c4.61,4.96,10.45,7.43,17.51,7.43
			c7.19,0,13.1-2.41,17.71-7.23c4.61-4.82,6.92-10.96,6.92-18.42v-33.39h-21.78c-1.09,0-1.63-0.54-1.63-1.63v-5.5
			c0-1.09,0.54-1.63,1.63-1.63h26.47c3.12,0,4.68,1.56,4.68,4.68v37.46c0,6.51-1.46,12.42-4.38,17.71
			c-2.92,5.29-6.99,9.43-12.21,12.42c-5.23,2.98-11.03,4.48-17.41,4.48C835.61,1328.53,829.77,1327,824.62,1323.95z"/>
		<path class="st2" d="M918.67,1325.07V1218.6c0-10.72,3.02-19.44,9.06-26.16c6.04-6.72,14.01-10.08,23.92-10.08
			c9.77,0,17.68,3.36,23.72,10.08c6.04,6.72,9.06,15.44,9.06,26.16v106.47c0,1.09-0.54,1.63-1.63,1.63h-6.11
			c-1.22,0-1.83-0.54-1.83-1.63V1218.6c0-8.28-2.1-14.89-6.31-19.85c-4.21-4.95-9.84-7.43-16.9-7.43c-7.06,0-12.72,2.48-17,7.43
			c-4.28,4.96-6.41,11.57-6.41,19.85v106.47c0,1.09-0.54,1.63-1.63,1.63h-6.11C919.28,1326.7,918.67,1326.16,918.67,1325.07z"/>
		<path class="st2" d="M1104.74,1318.45c-6.11-6.72-9.3-15.57-9.57-26.57c0-1.09,0.61-1.63,1.83-1.63h6.11
			c1.09,0,1.63,0.54,1.63,1.63c0.27,8.82,2.47,15.64,6.62,20.46c4.14,4.82,9.87,7.23,17.2,7.23c7.6,0,13.44-2.07,17.51-6.21
			c4.07-4.14,6.11-9.87,6.11-17.2c0-5.56-1.22-10.59-3.67-15.06c-2.44-4.48-5.39-8.38-8.86-11.71c-3.46-3.32-8.32-7.5-14.56-12.52
			c-6.38-5.02-11.47-9.36-15.27-13.03c-3.8-3.66-7.02-7.97-9.67-12.93c-2.64-4.95-3.97-10.62-3.97-17c0-9.5,2.95-17.13,8.86-22.9
			c5.9-5.77,13.67-8.65,23.31-8.65c9.09,0,16.59,3.29,22.5,9.87c5.9,6.58,8.99,15.3,9.26,26.16c0,1.09-0.54,1.63-1.63,1.63h-6.11
			c-1.22,0-1.83-0.54-1.83-1.63c-0.27-8.96-2.34-15.71-6.21-20.26c-3.87-4.55-9.2-6.82-15.98-6.82c-7.06,0-12.59,1.97-16.59,5.9
			c-4.01,3.94-6.01,9.5-6.01,16.69c0,5.02,1.15,9.6,3.46,13.74c2.31,4.14,5.16,7.81,8.55,10.99c3.39,3.19,8.01,7.09,13.84,11.71
			c6.65,5.16,11.94,9.67,15.88,13.54c3.93,3.87,7.29,8.52,10.08,13.95c2.78,5.43,4.18,11.54,4.18,18.32c0,9.5-3.02,17.27-9.06,23.31
			c-6.04,6.04-14.08,9.06-24.12,9.06C1118.79,1328.53,1110.85,1325.17,1104.74,1318.45z"/>
		<path class="st2" d="M1216.82,1322.63c-4.96-2.98-8.83-7.13-11.6-12.42c-2.78-5.29-4.17-11.2-4.17-17.71v-74.1
			c0-6.51,1.39-12.42,4.17-17.71c2.78-5.29,6.65-9.43,11.6-12.42c4.95-2.98,10.62-4.48,17-4.48h20.15c1.09,0,1.63,0.54,1.63,1.63
			v5.5c0,1.22-0.54,1.83-1.63,1.83h-20.15c-6.92,0-12.52,2.41-16.8,7.23c-4.27,4.82-6.41,10.96-6.41,18.42v31.56h38.68
			c1.22,0,1.83,0.54,1.83,1.63v5.5c0,1.09-0.61,1.63-1.83,1.63h-38.68v33.8c0,7.46,2.14,13.61,6.41,18.42
			c4.27,4.82,9.87,7.23,16.8,7.23h20.15c1.09,0,1.63,0.61,1.63,1.83v5.5c0,1.09-0.54,1.63-1.63,1.63h-20.15
			C1227.43,1327.11,1221.77,1325.61,1216.82,1322.63z"/>
		<path class="st2" d="M1358.91,1184.7c0.34,0.34,0.44,0.78,0.3,1.32l-27.69,137.01c-0.68,2.85-2.38,4.27-5.09,4.27h-5.9
			c-2.72,0-4.41-1.43-5.09-4.27l-27.69-137.01v-0.41c0-0.95,0.54-1.43,1.63-1.43h6.11c1.08,0,1.7,0.48,1.83,1.43l26.26,130.9
			l26.06-130.9c0.13-0.95,0.81-1.43,2.04-1.43h5.9C1358.13,1184.19,1358.57,1184.36,1358.91,1184.7z"/>
		<path class="st2" d="M1409.4,1322.63c-4.96-2.98-8.83-7.13-11.6-12.42c-2.78-5.29-4.17-11.2-4.17-17.71v-74.1
			c0-6.51,1.39-12.42,4.17-17.71c2.78-5.29,6.65-9.43,11.6-12.42c4.95-2.98,10.62-4.48,17-4.48h20.15c1.09,0,1.63,0.54,1.63,1.63
			v5.5c0,1.22-0.54,1.83-1.63,1.83h-20.15c-6.92,0-12.52,2.41-16.8,7.23c-4.27,4.82-6.41,10.96-6.41,18.42v31.56h38.68
			c1.22,0,1.83,0.54,1.83,1.63v5.5c0,1.09-0.61,1.63-1.83,1.63h-38.68v33.8c0,7.46,2.14,13.61,6.41,18.42
			c4.27,4.82,9.87,7.23,16.8,7.23h20.15c1.09,0,1.63,0.61,1.63,1.83v5.5c0,1.09-0.54,1.63-1.63,1.63h-20.15
			C1420.02,1327.11,1414.36,1325.61,1409.4,1322.63z"/>
		<path class="st2" d="M1489.71,1325.07V1218.6c0-10.72,3.02-19.44,9.06-26.16c6.04-6.72,14.01-10.08,23.92-10.08
			c9.77,0,17.68,3.36,23.72,10.08c6.04,6.72,9.06,15.44,9.06,26.16v106.47c0,1.09-0.54,1.63-1.63,1.63h-6.11
			c-1.22,0-1.83-0.54-1.83-1.63V1218.6c0-8.28-2.1-14.89-6.31-19.85c-4.21-4.95-9.84-7.43-16.9-7.43c-7.06,0-12.72,2.48-17,7.43
			c-4.28,4.96-6.41,11.57-6.41,19.85v106.47c0,1.09-0.54,1.63-1.63,1.63h-6.11C1490.32,1326.7,1489.71,1326.16,1489.71,1325.07z"/>
	</g>
	<g>
		<path class="st2" d="M1126.55,741.55v389.9H943.53c-38.64,0-70.08-31.44-70.08-70.08V862.87l44.16,37.85v153.66
			c0,17.07,13.88,30.98,30.95,30.98h133.83V981.93L907.94,826.84V707.91h143.5c22.39,0,40.63,18.23,40.63,40.63v178.95h-9.67V748.54
			c0-17.07-13.88-30.95-30.95-30.95H917.61v104.93l174.45,155.06v117.46h-143.5c-22.39,0-40.63-18.23-40.63-40.65V905.17
			l-24.81-21.26v177.45c0,33.32,27.11,60.41,60.41,60.41h173.34V741.55c0-33.3-27.11-60.41-60.41-60.41H883.13V804.4l-9.67-8.73
			v-124.2h183.01C1095.11,671.47,1126.55,702.91,1126.55,741.55z"/>
	</g>
</g>
</svg>
